{"glyphs":{"0":{"ha":1389,"x_min":0,"x_max":1234,"o":"m 926 154 l 926 926 l 309 926 l 309 154 l 926 154 m 154 0 l 154 154 l 0 154 l 0 926 l 154 926 l 154 1080 l 1080 1080 l 1080 926 l 1234 926 l 1234 154 l 1080 154 l 1080 0 l 154 0 z "},"1":{"ha":1080,"x_min":0,"x_max":926,"o":"m 0 0 l 0 154 l 309 154 l 309 926 l 0 926 l 0 1080 l 617 1080 l 617 154 l 926 154 l 926 0 l 0 0 z "},"2":{"ha":1389,"x_min":0,"x_max":1234,"o":"m 0 0 l 0 463 l 154 463 l 154 617 l 926 617 l 926 926 l 309 926 l 309 771 l 0 771 l 0 926 l 154 926 l 154 1080 l 1080 1080 l 1080 926 l 1234 926 l 1234 617 l 1080 617 l 1080 463 l 309 463 l 309 154 l 1234 154 l 1234 0 l 0 0 z "},"3":{"ha":1389,"x_min":0,"x_max":1234,"o":"m 154 0 l 154 154 l 0 154 l 0 309 l 309 309 l 309 154 l 926 154 l 926 463 l 309 463 l 309 617 l 926 617 l 926 926 l 309 926 l 309 771 l 0 771 l 0 926 l 154 926 l 154 1080 l 1080 1080 l 1080 926 l 1234 926 l 1234 617 l 1080 617 l 1080 463 l 1234 463 l 1234 154 l 1080 154 l 1080 0 l 154 0 z "},"4":{"ha":1389,"x_min":0,"x_max":1234,"o":"m 771 309 l 771 771 l 617 771 l 617 617 l 463 617 l 463 463 l 309 463 l 309 309 l 771 309 m 771 0 l 771 154 l 0 154 l 0 463 l 154 463 l 154 617 l 309 617 l 309 771 l 463 771 l 463 926 l 617 926 l 617 1080 l 1080 1080 l 1080 309 l 1234 309 l 1234 154 l 1080 154 l 1080 0 l 771 0 z "},"5":{"ha":1389,"x_min":0,"x_max":1234,"o":"m 154 0 l 154 154 l 0 154 l 0 309 l 309 309 l 309 154 l 926 154 l 926 617 l 0 617 l 0 1080 l 1234 1080 l 1234 926 l 309 926 l 309 771 l 1080 771 l 1080 617 l 1234 617 l 1234 154 l 1080 154 l 1080 0 l 154 0 z "},"6":{"ha":1389,"x_min":0,"x_max":1234,"o":"m 926 154 l 926 617 l 309 617 l 309 154 l 926 154 m 154 0 l 154 154 l 0 154 l 0 926 l 154 926 l 154 1080 l 1080 1080 l 1080 926 l 309 926 l 309 771 l 1080 771 l 1080 617 l 1234 617 l 1234 154 l 1080 154 l 1080 0 l 154 0 z "},"7":{"ha":1389,"x_min":0,"x_max":1234,"o":"m 154 0 l 154 154 l 309 154 l 309 309 l 463 309 l 463 463 l 617 463 l 617 617 l 771 617 l 771 771 l 926 771 l 926 926 l 309 926 l 309 771 l 0 771 l 0 1080 l 1234 1080 l 1234 771 l 1080 771 l 1080 617 l 926 617 l 926 463 l 771 463 l 771 309 l 617 309 l 617 154 l 463 154 l 463 0 l 154 0 z "},"8":{"ha":1389,"x_min":0,"x_max":1234,"o":"m 926 154 l 926 463 l 309 463 l 309 154 l 926 154 m 926 617 l 926 926 l 309 926 l 309 617 l 926 617 m 154 0 l 154 154 l 0 154 l 0 463 l 154 463 l 154 617 l 0 617 l 0 926 l 154 926 l 154 1080 l 1080 1080 l 1080 926 l 1234 926 l 1234 617 l 1080 617 l 1080 463 l 1234 463 l 1234 154 l 1080 154 l 1080 0 l 154 0 z "},"9":{"ha":1389,"x_min":0,"x_max":1234,"o":"m 926 463 l 926 926 l 309 926 l 309 463 l 926 463 m 154 0 l 154 154 l 926 154 l 926 309 l 154 309 l 154 463 l 0 463 l 0 926 l 154 926 l 154 1080 l 1080 1080 l 1080 926 l 1234 926 l 1234 154 l 1080 154 l 1080 0 l 154 0 z "}," ":{"ha":617,"x_min":0,"x_max":0,"o":""},"!":{"ha":463,"x_min":0,"x_max":309,"o":"m 0 0 l 0 154 l 309 154 l 309 0 l 0 0 m 0 309 l 0 1080 l 309 1080 l 309 309 l 0 309 z "},"\"":{"ha":926,"x_min":0,"x_max":771,"o":"m 0 617 l 0 1080 l 309 1080 l 309 617 l 0 617 m 463 617 l 463 1080 l 771 1080 l 771 617 l 463 617 z "},"#":{"ha":1543,"x_min":0,"x_max":1389,"o":"m 771 463 l 771 617 l 617 617 l 617 463 l 771 463 m 309 0 l 309 309 l 0 309 l 0 463 l 309 463 l 309 617 l 0 617 l 0 771 l 309 771 l 309 1080 l 617 1080 l 617 771 l 771 771 l 771 1080 l 1080 1080 l 1080 771 l 1389 771 l 1389 617 l 1080 617 l 1080 463 l 1389 463 l 1389 309 l 1080 309 l 1080 0 l 771 0 l 771 309 l 617 309 l 617 0 l 309 0 z "},"$":{"ha":1389,"x_min":0,"x_max":1234,"o":"m 926 154 l 926 463 l 771 463 l 771 154 l 926 154 m 463 617 l 463 926 l 309 926 l 309 617 l 463 617 m 463 -154 l 463 0 l 154 0 l 154 154 l 0 154 l 0 309 l 309 309 l 309 154 l 463 154 l 463 463 l 154 463 l 154 617 l 0 617 l 0 926 l 154 926 l 154 1080 l 463 1080 l 463 1234 l 771 1234 l 771 1080 l 1080 1080 l 1080 926 l 1234 926 l 1234 771 l 926 771 l 926 926 l 771 926 l 771 617 l 1080 617 l 1080 463 l 1234 463 l 1234 154 l 1080 154 l 1080 0 l 771 0 l 771 -154 l 463 -154 z "},"%":{"ha":1389,"x_min":0,"x_max":1234,"o":"m 771 0 l 771 309 l 1080 309 l 1080 0 l 771 0 m 154 771 l 154 1080 l 463 1080 l 463 771 l 154 771 m 0 0 l 0 154 l 154 154 l 154 309 l 309 309 l 309 463 l 463 463 l 463 617 l 617 617 l 617 771 l 771 771 l 771 926 l 926 926 l 926 1080 l 1234 1080 l 1234 926 l 1080 926 l 1080 771 l 926 771 l 926 617 l 771 617 l 771 463 l 617 463 l 617 309 l 463 309 l 463 154 l 309 154 l 309 0 l 0 0 z "},"&":{"ha":1389,"x_min":0,"x_max":1234,"o":"m 1080 0 l 1080 154 l 1234 154 l 1234 0 l 1080 0 m 771 154 l 771 309 l 617 309 l 617 463 l 309 463 l 309 154 l 771 154 m 1080 463 l 1080 617 l 1234 617 l 1234 463 l 1080 463 m 617 617 l 617 926 l 309 926 l 309 617 l 617 617 m 154 0 l 154 154 l 0 154 l 0 463 l 154 463 l 154 617 l 0 617 l 0 926 l 154 926 l 154 1080 l 771 1080 l 771 926 l 926 926 l 926 617 l 771 617 l 771 463 l 1080 463 l 1080 154 l 926 154 l 926 0 l 154 0 z "},"'":{"ha":463,"x_min":0,"x_max":309,"o":"m 0 617 l 0 1080 l 309 1080 l 309 617 l 0 617 z "},"(":{"ha":771,"x_min":0,"x_max":617,"o":"m 154 0 l 154 154 l 0 154 l 0 926 l 154 926 l 154 1080 l 617 1080 l 617 926 l 309 926 l 309 154 l 617 154 l 617 0 l 154 0 z "},")":{"ha":771,"x_min":0,"x_max":617,"o":"m 0 0 l 0 154 l 309 154 l 309 926 l 0 926 l 0 1080 l 463 1080 l 463 926 l 617 926 l 617 154 l 463 154 l 463 0 l 0 0 z "},"*":{"ha":926,"x_min":0,"x_max":771,"o":"m 0 309 l 0 617 l 154 617 l 154 771 l 0 771 l 0 926 l 309 926 l 309 1080 l 463 1080 l 463 926 l 771 926 l 771 771 l 617 771 l 617 617 l 771 617 l 771 309 l 617 309 l 617 463 l 154 463 l 154 309 l 0 309 z "},"+":{"ha":1389,"x_min":0,"x_max":1234,"o":"m 463 0 l 463 463 l 0 463 l 0 617 l 463 617 l 463 1080 l 771 1080 l 771 617 l 1234 617 l 1234 463 l 771 463 l 771 0 l 463 0 z "},",":{"ha":463,"x_min":0,"x_max":309,"o":"m 0 -309 l 0 154 l 309 154 l 309 -154 l 154 -154 l 154 -309 l 0 -309 z "},"-":{"ha":1389,"x_min":0,"x_max":1234,"o":"m 0 463 l 0 617 l 1234 617 l 1234 463 l 0 463 z "},".":{"ha":463,"x_min":0,"x_max":309,"o":"m 0 0 l 0 154 l 309 154 l 309 0 l 0 0 z "},"/":{"ha":1389,"x_min":0,"x_max":1234,"o":"m 0 0 l 0 154 l 154 154 l 154 309 l 309 309 l 309 463 l 463 463 l 463 617 l 617 617 l 617 771 l 771 771 l 771 926 l 926 926 l 926 1080 l 1234 1080 l 1234 926 l 1080 926 l 1080 771 l 926 771 l 926 617 l 771 617 l 771 463 l 617 463 l 617 309 l 463 309 l 463 154 l 309 154 l 309 0 l 0 0 z "},":":{"ha":463,"x_min":0,"x_max":309,"o":"m 0 0 l 0 154 l 309 154 l 309 0 l 0 0 m 0 617 l 0 771 l 309 771 l 309 617 l 0 617 z "},";":{"ha":463,"x_min":0,"x_max":309,"o":"m 0 -309 l 0 154 l 309 154 l 309 -154 l 154 -154 l 154 -309 l 0 -309 m 0 617 l 0 771 l 309 771 l 309 617 l 0 617 z "},"<":{"ha":926,"x_min":0,"x_max":771,"o":"m 463 0 l 463 154 l 309 154 l 309 309 l 154 309 l 154 463 l 0 463 l 0 617 l 154 617 l 154 771 l 309 771 l 309 926 l 463 926 l 463 1080 l 771 1080 l 771 926 l 617 926 l 617 771 l 463 771 l 463 617 l 309 617 l 309 463 l 463 463 l 463 309 l 617 309 l 617 154 l 771 154 l 771 0 l 463 0 z "},"=":{"ha":1389,"x_min":0,"x_max":1234,"o":"m 0 309 l 0 463 l 1234 463 l 1234 309 l 0 309 m 0 617 l 0 771 l 1234 771 l 1234 617 l 0 617 z "},">":{"ha":926,"x_min":0,"x_max":771,"o":"m 0 0 l 0 154 l 154 154 l 154 309 l 309 309 l 309 463 l 463 463 l 463 617 l 309 617 l 309 771 l 154 771 l 154 926 l 0 926 l 0 1080 l 309 1080 l 309 926 l 463 926 l 463 771 l 617 771 l 617 617 l 771 617 l 771 463 l 617 463 l 617 309 l 463 309 l 463 154 l 309 154 l 309 0 l 0 0 z "},"?":{"ha":1389,"x_min":0,"x_max":1234,"o":"m 309 0 l 309 154 l 617 154 l 617 0 l 309 0 m 309 309 l 309 463 l 926 463 l 926 926 l 309 926 l 309 771 l 0 771 l 0 926 l 154 926 l 154 1080 l 1080 1080 l 1080 926 l 1234 926 l 1234 463 l 1080 463 l 1080 309 l 309 309 z "},"@":{"ha":1389,"x_min":0,"x_max":1234,"o":"m 154 0 l 154 154 l 0 154 l 0 926 l 154 926 l 154 1080 l 1080 1080 l 1080 926 l 1234 926 l 1234 463 l 1080 463 l 1080 309 l 463 309 l 463 771 l 771 771 l 771 463 l 926 463 l 926 926 l 309 926 l 309 154 l 926 154 l 926 0 l 154 0 z "},"A":{"ha":1389,"x_min":0,"x_max":1234,"o":"m 926 309 l 926 617 l 771 617 l 771 771 l 463 771 l 463 617 l 309 617 l 309 309 l 926 309 m 0 0 l 0 617 l 154 617 l 154 771 l 309 771 l 309 926 l 463 926 l 463 1080 l 771 1080 l 771 926 l 926 926 l 926 771 l 1080 771 l 1080 617 l 1234 617 l 1234 0 l 926 0 l 926 154 l 309 154 l 309 0 l 0 0 z "},"B":{"ha":1389,"x_min":0,"x_max":1234,"o":"m 926 154 l 926 463 l 309 463 l 309 154 l 926 154 m 926 617 l 926 926 l 309 926 l 309 617 l 926 617 m 0 0 l 0 1080 l 1080 1080 l 1080 926 l 1234 926 l 1234 617 l 1080 617 l 1080 463 l 1234 463 l 1234 154 l 1080 154 l 1080 0 l 0 0 z "},"C":{"ha":1389,"x_min":0,"x_max":1234,"o":"m 154 0 l 154 154 l 0 154 l 0 926 l 154 926 l 154 1080 l 1080 1080 l 1080 926 l 1234 926 l 1234 771 l 926 771 l 926 926 l 309 926 l 309 154 l 926 154 l 926 309 l 1234 309 l 1234 154 l 1080 154 l 1080 0 l 154 0 z "},"D":{"ha":1389,"x_min":0,"x_max":1234,"o":"m 926 154 l 926 926 l 309 926 l 309 154 l 926 154 m 0 0 l 0 1080 l 1080 1080 l 1080 926 l 1234 926 l 1234 154 l 1080 154 l 1080 0 l 0 0 z "},"E":{"ha":1389,"x_min":0,"x_max":1234,"o":"m 0 0 l 0 1080 l 1234 1080 l 1234 926 l 309 926 l 309 617 l 926 617 l 926 463 l 309 463 l 309 154 l 1234 154 l 1234 0 l 0 0 z "},"F":{"ha":1389,"x_min":0,"x_max":1234,"o":"m 0 0 l 0 1080 l 1234 1080 l 1234 926 l 309 926 l 309 617 l 926 617 l 926 463 l 309 463 l 309 0 l 0 0 z "},"G":{"ha":1389,"x_min":0,"x_max":1234,"o":"m 154 0 l 154 154 l 0 154 l 0 926 l 154 926 l 154 1080 l 1080 1080 l 1080 926 l 1234 926 l 1234 771 l 926 771 l 926 926 l 309 926 l 309 154 l 926 154 l 926 463 l 617 463 l 617 617 l 1234 617 l 1234 154 l 1080 154 l 1080 0 l 154 0 z "},"H":{"ha":1389,"x_min":0,"x_max":1234,"o":"m 0 0 l 0 1080 l 309 1080 l 309 617 l 926 617 l 926 1080 l 1234 1080 l 1234 0 l 926 0 l 926 463 l 309 463 l 309 0 l 0 0 z "},"I":{"ha":771,"x_min":0,"x_max":617,"o":"m 0 0 l 0 154 l 154 154 l 154 926 l 0 926 l 0 1080 l 617 1080 l 617 926 l 463 926 l 463 154 l 617 154 l 617 0 l 0 0 z "},"J":{"ha":1389,"x_min":0,"x_max":1234,"o":"m 154 0 l 154 154 l 0 154 l 0 309 l 309 309 l 309 154 l 617 154 l 617 926 l 0 926 l 0 1080 l 1234 1080 l 1234 926 l 926 926 l 926 154 l 771 154 l 771 0 l 154 0 z "},"K":{"ha":1389,"x_min":0,"x_max":1234,"o":"m 0 0 l 0 1080 l 309 1080 l 309 617 l 617 617 l 617 771 l 771 771 l 771 926 l 926 926 l 926 1080 l 1234 1080 l 1234 926 l 1080 926 l 1080 771 l 926 771 l 926 617 l 771 617 l 771 463 l 926 463 l 926 309 l 1080 309 l 1080 154 l 1234 154 l 1234 0 l 926 0 l 926 154 l 771 154 l 771 309 l 617 309 l 617 463 l 309 463 l 309 0 l 0 0 z "},"L":{"ha":1389,"x_min":0,"x_max":1234,"o":"m 0 0 l 0 1080 l 309 1080 l 309 154 l 1234 154 l 1234 0 l 0 0 z "},"M":{"ha":1543,"x_min":0,"x_max":1389,"o":"m 0 0 l 0 1080 l 309 1080 l 309 926 l 463 926 l 463 771 l 617 771 l 617 617 l 771 617 l 771 771 l 926 771 l 926 926 l 1080 926 l 1080 1080 l 1389 1080 l 1389 0 l 1080 0 l 1080 617 l 926 617 l 926 463 l 771 463 l 771 309 l 617 309 l 617 463 l 463 463 l 463 617 l 309 617 l 309 0 l 0 0 z "},"N":{"ha":1389,"x_min":0,"x_max":1234,"o":"m 0 0 l 0 1080 l 309 1080 l 309 926 l 463 926 l 463 771 l 617 771 l 617 617 l 771 617 l 771 463 l 926 463 l 926 1080 l 1234 1080 l 1234 0 l 926 0 l 926 154 l 771 154 l 771 309 l 617 309 l 617 463 l 463 463 l 463 617 l 309 617 l 309 0 l 0 0 z "},"O":{"ha":1389,"x_min":0,"x_max":1234,"o":"m 926 154 l 926 926 l 309 926 l 309 154 l 926 154 m 154 0 l 154 154 l 0 154 l 0 926 l 154 926 l 154 1080 l 1080 1080 l 1080 926 l 1234 926 l 1234 154 l 1080 154 l 1080 0 l 154 0 z "},"P":{"ha":1389,"x_min":0,"x_max":1234,"o":"m 926 463 l 926 926 l 309 926 l 309 463 l 926 463 m 0 0 l 0 1080 l 1080 1080 l 1080 926 l 1234 926 l 1234 463 l 1080 463 l 1080 309 l 309 309 l 309 0 l 0 0 z "},"Q":{"ha":1389,"x_min":0,"x_max":1234,"o":"m 771 154 l 771 309 l 617 309 l 617 617 l 771 617 l 771 463 l 926 463 l 926 926 l 309 926 l 309 154 l 771 154 m 154 0 l 154 154 l 0 154 l 0 926 l 154 926 l 154 1080 l 1080 1080 l 1080 926 l 1234 926 l 1234 463 l 1080 463 l 1080 309 l 1234 309 l 1234 0 l 1080 0 l 1080 154 l 926 154 l 926 0 l 154 0 z "},"R":{"ha":1389,"x_min":0,"x_max":1234,"o":"m 926 463 l 926 926 l 309 926 l 309 463 l 926 463 m 0 0 l 0 1080 l 1080 1080 l 1080 926 l 1234 926 l 1234 463 l 1080 463 l 1080 154 l 1234 154 l 1234 0 l 926 0 l 926 154 l 771 154 l 771 309 l 309 309 l 309 0 l 0 0 z "},"S":{"ha":1389,"x_min":0,"x_max":1234,"o":"m 154 0 l 154 154 l 0 154 l 0 309 l 309 309 l 309 154 l 926 154 l 926 463 l 154 463 l 154 617 l 0 617 l 0 926 l 154 926 l 154 1080 l 1080 1080 l 1080 926 l 1234 926 l 1234 771 l 926 771 l 926 926 l 309 926 l 309 617 l 1080 617 l 1080 463 l 1234 463 l 1234 154 l 1080 154 l 1080 0 l 154 0 z "},"T":{"ha":1389,"x_min":0,"x_max":1234,"o":"m 463 0 l 463 926 l 0 926 l 0 1080 l 1234 1080 l 1234 926 l 771 926 l 771 0 l 463 0 z "},"U":{"ha":1389,"x_min":0,"x_max":1234,"o":"m 154 0 l 154 154 l 0 154 l 0 1080 l 309 1080 l 309 154 l 926 154 l 926 1080 l 1234 1080 l 1234 154 l 1080 154 l 1080 0 l 154 0 z "},"V":{"ha":1389,"x_min":0,"x_max":1234,"o":"m 463 0 l 463 154 l 309 154 l 309 309 l 154 309 l 154 463 l 0 463 l 0 1080 l 309 1080 l 309 463 l 463 463 l 463 309 l 771 309 l 771 463 l 926 463 l 926 1080 l 1234 1080 l 1234 463 l 1080 463 l 1080 309 l 926 309 l 926 154 l 771 154 l 771 0 l 463 0 z "},"W":{"ha":1543,"x_min":0,"x_max":1389,"o":"m 0 0 l 0 1080 l 309 1080 l 309 463 l 463 463 l 463 617 l 617 617 l 617 771 l 771 771 l 771 617 l 926 617 l 926 463 l 1080 463 l 1080 1080 l 1389 1080 l 1389 0 l 1080 0 l 1080 154 l 926 154 l 926 309 l 771 309 l 771 463 l 617 463 l 617 309 l 463 309 l 463 154 l 309 154 l 309 0 l 0 0 z "},"X":{"ha":1389,"x_min":0,"x_max":1234,"o":"m 0 0 l 0 154 l 154 154 l 154 309 l 309 309 l 309 463 l 463 463 l 463 617 l 309 617 l 309 771 l 154 771 l 154 926 l 0 926 l 0 1080 l 309 1080 l 309 926 l 463 926 l 463 771 l 771 771 l 771 926 l 926 926 l 926 1080 l 1234 1080 l 1234 926 l 1080 926 l 1080 771 l 926 771 l 926 617 l 771 617 l 771 463 l 926 463 l 926 309 l 1080 309 l 1080 154 l 1234 154 l 1234 0 l 926 0 l 926 154 l 771 154 l 771 309 l 463 309 l 463 154 l 309 154 l 309 0 l 0 0 z "},"Y":{"ha":1389,"x_min":0,"x_max":1234,"o":"m 463 0 l 463 463 l 309 463 l 309 617 l 154 617 l 154 771 l 0 771 l 0 1080 l 309 1080 l 309 771 l 463 771 l 463 617 l 771 617 l 771 771 l 926 771 l 926 1080 l 1234 1080 l 1234 771 l 1080 771 l 1080 617 l 926 617 l 926 463 l 771 463 l 771 0 l 463 0 z "},"Z":{"ha":1389,"x_min":0,"x_max":1234,"o":"m 0 0 l 0 154 l 154 154 l 154 309 l 309 309 l 309 463 l 463 463 l 463 617 l 617 617 l 617 771 l 771 771 l 771 926 l 0 926 l 0 1080 l 1234 1080 l 1234 926 l 1080 926 l 1080 771 l 926 771 l 926 617 l 771 617 l 771 463 l 617 463 l 617 309 l 463 309 l 463 154 l 1234 154 l 1234 0 l 0 0 z "},"[":{"ha":771,"x_min":0,"x_max":617,"o":"m 0 0 l 0 1080 l 617 1080 l 617 926 l 309 926 l 309 154 l 617 154 l 617 0 l 0 0 z "},"\\":{"ha":1389,"x_min":0,"x_max":1234,"o":"m 926 0 l 926 154 l 771 154 l 771 309 l 617 309 l 617 463 l 463 463 l 463 617 l 309 617 l 309 771 l 154 771 l 154 926 l 0 926 l 0 1080 l 309 1080 l 309 926 l 463 926 l 463 771 l 617 771 l 617 617 l 771 617 l 771 463 l 926 463 l 926 309 l 1080 309 l 1080 154 l 1234 154 l 1234 0 l 926 0 z "},"]":{"ha":771,"x_min":0,"x_max":617,"o":"m 0 0 l 0 154 l 309 154 l 309 926 l 0 926 l 0 1080 l 617 1080 l 617 0 l 0 0 z "},"^":{"ha":926,"x_min":0,"x_max":771,"o":"m 0 463 l 0 771 l 154 771 l 154 926 l 309 926 l 309 1080 l 463 1080 l 463 926 l 617 926 l 617 771 l 771 771 l 771 463 l 617 463 l 617 617 l 463 617 l 463 771 l 309 771 l 309 617 l 154 617 l 154 463 l 0 463 z "},"_":{"ha":1389,"x_min":0,"x_max":1234,"o":"m 0 0 l 0 154 l 1234 154 l 1234 0 l 0 0 z "},"`":{"ha":617,"x_min":0,"x_max":463,"o":"m 154 771 l 154 926 l 0 926 l 0 1080 l 309 1080 l 309 926 l 463 926 l 463 771 l 154 771 z "},"a":{"ha":1080,"x_min":0,"x_max":926,"o":"m 154 0 l 154 154 l 0 154 l 0 617 l 154 617 l 154 771 l 771 771 l 771 617 l 926 617 l 926 0 l 771 0 l 771 154 l 617 154 l 617 617 l 309 617 l 309 154 l 617 154 l 617 0 l 154 0 z "},"b":{"ha":1080,"x_min":0,"x_max":926,"o":"m 617 154 l 617 617 l 309 617 l 309 154 l 617 154 m 0 0 l 0 1080 l 309 1080 l 309 771 l 771 771 l 771 617 l 926 617 l 926 154 l 771 154 l 771 0 l 0 0 z "},"c":{"ha":1080,"x_min":0,"x_max":926,"o":"m 154 0 l 154 154 l 0 154 l 0 617 l 154 617 l 154 771 l 771 771 l 771 617 l 926 617 l 926 463 l 617 463 l 617 617 l 309 617 l 309 154 l 617 154 l 617 309 l 926 309 l 926 154 l 771 154 l 771 0 l 154 0 z "},"d":{"ha":1080,"x_min":0,"x_max":926,"o":"m 154 0 l 154 154 l 0 154 l 0 617 l 154 617 l 154 771 l 617 771 l 617 1080 l 926 1080 l 926 0 l 771 0 l 771 154 l 617 154 l 617 617 l 309 617 l 309 154 l 617 154 l 617 0 l 154 0 z "},"e":{"ha":1080,"x_min":0,"x_max":926,"o":"m 617 463 l 617 617 l 309 617 l 309 463 l 617 463 m 154 0 l 154 154 l 0 154 l 0 617 l 154 617 l 154 771 l 771 771 l 771 617 l 926 617 l 926 309 l 309 309 l 309 154 l 771 154 l 771 0 l 154 0 z "},"f":{"ha":1080,"x_min":0,"x_max":926,"o":"m 0 0 l 0 926 l 154 926 l 154 1080 l 771 1080 l 771 926 l 926 926 l 926 771 l 617 771 l 617 926 l 309 926 l 309 617 l 771 617 l 771 463 l 309 463 l 309 0 l 0 0 z "},"g":{"ha":1080,"x_min":0,"x_max":926,"o":"m 154 -309 l 154 -154 l 617 -154 l 617 0 l 154 0 l 154 154 l 0 154 l 0 617 l 154 617 l 154 771 l 617 771 l 617 617 l 309 617 l 309 154 l 617 154 l 617 617 l 771 617 l 771 771 l 926 771 l 926 -154 l 771 -154 l 771 -309 l 154 -309 z "},"h":{"ha":1080,"x_min":0,"x_max":926,"o":"m 0 0 l 0 1080 l 309 1080 l 309 771 l 771 771 l 771 617 l 926 617 l 926 0 l 617 0 l 617 617 l 309 617 l 309 0 l 0 0 z "},"i":{"ha":463,"x_min":0,"x_max":309,"o":"m 0 0 l 0 771 l 309 771 l 309 0 l 0 0 m 0 926 l 0 1080 l 309 1080 l 309 926 l 0 926 z "},"j":{"ha":617,"x_min":0,"x_max":463,"o":"m 0 -154 l 0 0 l 154 0 l 154 771 l 463 771 l 463 0 l 309 0 l 309 -154 l 0 -154 m 154 926 l 154 1080 l 463 1080 l 463 926 l 154 926 z "},"k":{"ha":1080,"x_min":0,"x_max":926,"o":"m 0 0 l 0 1080 l 309 1080 l 309 463 l 463 463 l 463 617 l 617 617 l 617 771 l 926 771 l 926 617 l 771 617 l 771 463 l 617 463 l 617 309 l 771 309 l 771 154 l 926 154 l 926 0 l 617 0 l 617 154 l 463 154 l 463 309 l 309 309 l 309 0 l 0 0 z "},"l":{"ha":463,"x_min":0,"x_max":309,"o":"m 0 0 l 0 1080 l 309 1080 l 309 0 l 0 0 z "},"m":{"ha":1389,"x_min":0,"x_max":1234,"o":"m 0 0 l 0 771 l 154 771 l 154 617 l 309 617 l 309 0 l 0 0 m 463 0 l 463 617 l 309 617 l 309 771 l 1080 771 l 1080 617 l 1234 617 l 1234 0 l 926 0 l 926 617 l 771 617 l 771 0 l 463 0 z "},"n":{"ha":1080,"x_min":0,"x_max":926,"o":"m 0 0 l 0 771 l 154 771 l 154 617 l 309 617 l 309 0 l 0 0 m 617 0 l 617 617 l 309 617 l 309 771 l 771 771 l 771 617 l 926 617 l 926 0 l 617 0 z "},"o":{"ha":1080,"x_min":0,"x_max":926,"o":"m 617 154 l 617 617 l 309 617 l 309 154 l 617 154 m 154 0 l 154 154 l 0 154 l 0 617 l 154 617 l 154 771 l 771 771 l 771 617 l 926 617 l 926 154 l 771 154 l 771 0 l 154 0 z "},"p":{"ha":1080,"x_min":0,"x_max":926,"o":"m 0 -309 l 0 771 l 154 771 l 154 617 l 309 617 l 309 154 l 617 154 l 617 617 l 309 617 l 309 771 l 771 771 l 771 617 l 926 617 l 926 154 l 771 154 l 771 0 l 309 0 l 309 -309 l 0 -309 z "},"q":{"ha":1080,"x_min":0,"x_max":926,"o":"m 617 -309 l 617 0 l 154 0 l 154 154 l 0 154 l 0 617 l 154 617 l 154 771 l 617 771 l 617 617 l 309 617 l 309 154 l 617 154 l 617 617 l 771 617 l 771 771 l 926 771 l 926 -309 l 617 -309 z "},"r":{"ha":1080,"x_min":0,"x_max":926,"o":"m 0 0 l 0 771 l 154 771 l 154 617 l 309 617 l 309 0 l 0 0 m 617 463 l 617 617 l 309 617 l 309 771 l 771 771 l 771 617 l 926 617 l 926 463 l 617 463 z "},"s":{"ha":1080,"x_min":0,"x_max":926,"o":"m 0 0 l 0 154 l 463 154 l 463 309 l 154 309 l 154 463 l 0 463 l 0 617 l 154 617 l 154 771 l 926 771 l 926 617 l 463 617 l 463 463 l 771 463 l 771 309 l 926 309 l 926 154 l 771 154 l 771 0 l 0 0 z "},"t":{"ha":926,"x_min":0,"x_max":771,"o":"m 309 0 l 309 154 l 154 154 l 154 617 l 0 617 l 0 771 l 154 771 l 154 926 l 463 926 l 463 771 l 771 771 l 771 617 l 463 617 l 463 154 l 771 154 l 771 0 l 309 0 z "},"u":{"ha":1080,"x_min":0,"x_max":926,"o":"m 154 0 l 154 154 l 0 154 l 0 771 l 309 771 l 309 154 l 617 154 l 617 0 l 154 0 m 771 0 l 771 154 l 617 154 l 617 771 l 926 771 l 926 0 l 771 0 z "},"v":{"ha":1080,"x_min":0,"x_max":926,"o":"m 309 0 l 309 154 l 154 154 l 154 309 l 0 309 l 0 771 l 309 771 l 309 309 l 463 309 l 463 154 l 617 154 l 617 0 l 309 0 m 617 154 l 617 771 l 926 771 l 926 309 l 771 309 l 771 154 l 617 154 z "},"w":{"ha":1389,"x_min":0,"x_max":1234,"o":"m 154 0 l 154 154 l 0 154 l 0 771 l 309 771 l 309 154 l 463 154 l 463 771 l 771 771 l 771 154 l 617 154 l 617 0 l 154 0 m 771 0 l 771 154 l 926 154 l 926 771 l 1234 771 l 1234 154 l 1080 154 l 1080 0 l 771 0 z "},"x":{"ha":1080,"x_min":0,"x_max":926,"o":"m 0 0 l 0 154 l 154 154 l 154 309 l 309 309 l 309 463 l 154 463 l 154 617 l 0 617 l 0 771 l 309 771 l 309 617 l 617 617 l 617 771 l 926 771 l 926 617 l 771 617 l 771 463 l 617 463 l 617 309 l 771 309 l 771 154 l 926 154 l 926 0 l 617 0 l 617 154 l 309 154 l 309 0 l 0 0 z "},"y":{"ha":1080,"x_min":0,"x_max":926,"o":"m 154 -309 l 154 -154 l 617 -154 l 617 0 l 154 0 l 154 154 l 0 154 l 0 771 l 309 771 l 309 154 l 617 154 l 617 771 l 926 771 l 926 -154 l 771 -154 l 771 -309 l 154 -309 z "},"z":{"ha":1080,"x_min":0,"x_max":926,"o":"m 0 0 l 0 154 l 154 154 l 154 309 l 309 309 l 309 463 l 463 463 l 463 617 l 0 617 l 0 771 l 926 771 l 926 617 l 771 617 l 771 463 l 617 463 l 617 309 l 463 309 l 463 154 l 926 154 l 926 0 l 0 0 z "},"{":{"ha":926,"x_min":0,"x_max":771,"o":"m 309 0 l 309 154 l 154 154 l 154 463 l 0 463 l 0 617 l 154 617 l 154 926 l 309 926 l 309 1080 l 771 1080 l 771 926 l 463 926 l 463 617 l 309 617 l 309 463 l 463 463 l 463 154 l 771 154 l 771 0 l 309 0 z "},"|":{"ha":463,"x_min":0,"x_max":309,"o":"m 0 0 l 0 1080 l 309 1080 l 309 0 l 0 0 z "},"}":{"ha":926,"x_min":0,"x_max":771,"o":"m 0 0 l 0 154 l 309 154 l 309 463 l 463 463 l 463 617 l 309 617 l 309 926 l 0 926 l 0 1080 l 463 1080 l 463 926 l 617 926 l 617 617 l 771 617 l 771 463 l 617 463 l 617 154 l 463 154 l 463 0 l 0 0 z "},"~":{"ha":1389,"x_min":0,"x_max":1234,"o":"m 0 309 l 0 617 l 154 617 l 154 771 l 617 771 l 617 617 l 771 617 l 771 463 l 926 463 l 926 771 l 1234 771 l 1234 463 l 1080 463 l 1080 309 l 617 309 l 617 463 l 463 463 l 463 617 l 309 617 l 309 309 l 0 309 z "},"¡":{"ha":463,"x_min":0,"x_max":309,"o":"m 0 -309 l 0 463 l 309 463 l 309 -309 l 0 -309 m 0 617 l 0 771 l 309 771 l 309 617 l 0 617 z "},"¢":{"ha":1080,"x_min":0,"x_max":926,"o":"m 309 -154 l 309 0 l 154 0 l 154 154 l 0 154 l 0 617 l 154 617 l 154 771 l 309 771 l 309 926 l 617 926 l 617 771 l 771 771 l 771 617 l 926 617 l 926 463 l 617 463 l 617 617 l 309 617 l 309 154 l 617 154 l 617 309 l 926 309 l 926 154 l 771 154 l 771 0 l 617 0 l 617 -154 l 309 -154 z "},"£":{"ha":1389,"x_min":0,"x_max":1234,"o":"m 154 0 l 154 463 l 0 463 l 0 617 l 154 617 l 154 926 l 309 926 l 309 1080 l 1080 1080 l 1080 926 l 1234 926 l 1234 771 l 926 771 l 926 926 l 463 926 l 463 617 l 926 617 l 926 463 l 463 463 l 463 154 l 1234 154 l 1234 0 l 154 0 z "},"¤":{"ha":1389,"x_min":0,"x_max":1234,"o":"m 0 154 l 0 309 l 154 309 l 154 154 l 0 154 m 1080 154 l 1080 309 l 1234 309 l 1234 154 l 1080 154 m 771 309 l 771 771 l 463 771 l 463 309 l 771 309 m 0 771 l 0 926 l 154 926 l 154 771 l 0 771 m 309 154 l 309 309 l 154 309 l 154 771 l 309 771 l 309 926 l 926 926 l 926 771 l 1080 771 l 1080 309 l 926 309 l 926 154 l 309 154 m 1080 771 l 1080 926 l 1234 926 l 1234 771 l 1080 771 z "},"¥":{"ha":1389,"x_min":0,"x_max":1234,"o":"m 463 0 l 463 154 l 154 154 l 154 309 l 463 309 l 463 463 l 309 463 l 309 617 l 154 617 l 154 771 l 0 771 l 0 1080 l 309 1080 l 309 771 l 463 771 l 463 617 l 771 617 l 771 771 l 926 771 l 926 1080 l 1234 1080 l 1234 771 l 1080 771 l 1080 617 l 926 617 l 926 463 l 771 463 l 771 309 l 1080 309 l 1080 154 l 771 154 l 771 0 l 463 0 z "},"¦":{"ha":463,"x_min":0,"x_max":309,"o":"m 0 0 l 0 463 l 309 463 l 309 0 l 0 0 m 0 617 l 0 1080 l 309 1080 l 309 617 l 0 617 z "},"§":{"ha":1389,"x_min":0,"x_max":1234,"o":"m 771 463 l 771 617 l 463 617 l 463 463 l 771 463 m 154 0 l 154 154 l 0 154 l 0 309 l 309 309 l 309 154 l 926 154 l 926 309 l 309 309 l 309 463 l 154 463 l 154 617 l 0 617 l 0 926 l 154 926 l 154 1080 l 1080 1080 l 1080 926 l 1234 926 l 1234 771 l 926 771 l 926 926 l 309 926 l 309 771 l 926 771 l 926 617 l 1080 617 l 1080 463 l 1234 463 l 1234 154 l 1080 154 l 1080 0 l 154 0 z "},"¨":{"ha":1080,"x_min":0,"x_max":926,"o":"m 0 926 l 0 1080 l 309 1080 l 309 926 l 0 926 m 617 926 l 617 1080 l 926 1080 l 926 926 l 617 926 z "},"©":{"ha":1389,"x_min":0,"x_max":1234,"o":"m 463 309 l 463 771 l 771 771 l 771 617 l 617 617 l 617 463 l 771 463 l 771 309 l 463 309 m 926 154 l 926 926 l 309 926 l 309 154 l 926 154 m 154 0 l 154 154 l 0 154 l 0 926 l 154 926 l 154 1080 l 1080 1080 l 1080 926 l 1234 926 l 1234 154 l 1080 154 l 1080 0 l 154 0 z "},"ª":{"ha":1080,"x_min":0,"x_max":926,"o":"m 154 309 l 154 463 l 0 463 l 0 926 l 154 926 l 154 1080 l 771 1080 l 771 926 l 926 926 l 926 309 l 771 309 l 771 463 l 617 463 l 617 926 l 309 926 l 309 463 l 617 463 l 617 309 l 154 309 z "},"«":{"ha":1389,"x_min":0,"x_max":1234,"o":"m 309 0 l 309 154 l 154 154 l 154 309 l 0 309 l 0 463 l 154 463 l 154 617 l 309 617 l 309 771 l 617 771 l 617 617 l 463 617 l 463 463 l 309 463 l 309 309 l 463 309 l 463 154 l 617 154 l 617 0 l 309 0 m 926 0 l 926 154 l 771 154 l 771 309 l 617 309 l 617 463 l 771 463 l 771 617 l 926 617 l 926 771 l 1234 771 l 1234 617 l 1080 617 l 1080 463 l 926 463 l 926 309 l 1080 309 l 1080 154 l 1234 154 l 1234 0 l 926 0 z "},"¬":{"ha":1389,"x_min":0,"x_max":1234,"o":"m 926 154 l 926 463 l 0 463 l 0 617 l 1234 617 l 1234 154 l 926 154 z "},"­":{"ha":1389,"x_min":0,"x_max":1234,"o":"m 0 463 l 0 617 l 1234 617 l 1234 463 l 0 463 z "},"®":{"ha":1389,"x_min":0,"x_max":1234,"o":"m 463 309 l 463 771 l 771 771 l 771 617 l 617 617 l 617 309 l 463 309 m 926 154 l 926 926 l 309 926 l 309 154 l 926 154 m 154 0 l 154 154 l 0 154 l 0 926 l 154 926 l 154 1080 l 1080 1080 l 1080 926 l 1234 926 l 1234 154 l 1080 154 l 1080 0 l 154 0 z "},"¯":{"ha":1080,"x_min":0,"x_max":926,"o":"m 0 926 l 0 1080 l 926 1080 l 926 926 l 0 926 z "},"°":{"ha":926,"x_min":0,"x_max":771,"o":"m 463 463 l 463 926 l 309 926 l 309 463 l 463 463 m 154 309 l 154 463 l 0 463 l 0 926 l 154 926 l 154 1080 l 617 1080 l 617 926 l 771 926 l 771 463 l 617 463 l 617 309 l 154 309 z "},"±":{"ha":1389,"x_min":0,"x_max":1234,"o":"m 0 0 l 0 154 l 463 154 l 463 463 l 0 463 l 0 617 l 463 617 l 463 1080 l 771 1080 l 771 617 l 1234 617 l 1234 463 l 771 463 l 771 154 l 1234 154 l 1234 0 l 0 0 z "},"²":{"ha":926,"x_min":0,"x_max":771,"o":"m 0 309 l 0 617 l 154 617 l 154 771 l 309 771 l 309 926 l 0 926 l 0 1080 l 617 1080 l 617 926 l 771 926 l 771 771 l 617 771 l 617 617 l 309 617 l 309 463 l 771 463 l 771 309 l 0 309 z "},"³":{"ha":926,"x_min":0,"x_max":771,"o":"m 0 309 l 0 463 l 309 463 l 309 617 l 154 617 l 154 771 l 309 771 l 309 926 l 0 926 l 0 1080 l 617 1080 l 617 926 l 771 926 l 771 771 l 617 771 l 617 617 l 771 617 l 771 463 l 617 463 l 617 309 l 0 309 z "},"´":{"ha":617,"x_min":0,"x_max":463,"o":"m 0 771 l 0 926 l 154 926 l 154 1080 l 463 1080 l 463 926 l 309 926 l 309 771 l 0 771 z "},"µ":{"ha":1080,"x_min":0,"x_max":926,"o":"m 0 -309 l 0 771 l 309 771 l 309 154 l 617 154 l 617 0 l 309 0 l 309 -309 l 0 -309 m 771 0 l 771 154 l 617 154 l 617 771 l 926 771 l 926 0 l 771 0 z "},"¶":{"ha":1389,"x_min":0,"x_max":1234,"o":"m 309 0 l 309 309 l 154 309 l 154 463 l 0 463 l 0 926 l 154 926 l 154 1080 l 1234 1080 l 1234 926 l 1080 926 l 1080 0 l 771 0 l 771 926 l 617 926 l 617 0 l 309 0 z "},"·":{"ha":463,"x_min":0,"x_max":309,"o":"m 0 463 l 0 617 l 309 617 l 309 463 l 0 463 z "},"¸":{"ha":617,"x_min":0,"x_max":463,"o":"m 0 -309 l 0 -154 l 154 -154 l 154 0 l 463 0 l 463 -154 l 309 -154 l 309 -309 l 0 -309 z "},"¹":{"ha":771,"x_min":0,"x_max":617,"o":"m 0 309 l 0 463 l 154 463 l 154 926 l 0 926 l 0 1080 l 463 1080 l 463 463 l 617 463 l 617 309 l 0 309 z "},"º":{"ha":1080,"x_min":0,"x_max":926,"o":"m 617 463 l 617 926 l 309 926 l 309 463 l 617 463 m 154 309 l 154 463 l 0 463 l 0 926 l 154 926 l 154 1080 l 771 1080 l 771 926 l 926 926 l 926 463 l 771 463 l 771 309 l 154 309 z "},"»":{"ha":1389,"x_min":0,"x_max":1234,"o":"m 0 0 l 0 154 l 154 154 l 154 309 l 309 309 l 309 463 l 154 463 l 154 617 l 0 617 l 0 771 l 309 771 l 309 617 l 463 617 l 463 463 l 617 463 l 617 309 l 463 309 l 463 154 l 309 154 l 309 0 l 0 0 m 617 0 l 617 154 l 771 154 l 771 309 l 926 309 l 926 463 l 771 463 l 771 617 l 617 617 l 617 771 l 926 771 l 926 617 l 1080 617 l 1080 463 l 1234 463 l 1234 309 l 1080 309 l 1080 154 l 926 154 l 926 0 l 617 0 z "},"¼":{"ha":1389,"x_min":0,"x_max":1234,"o":"m 1080 0 l 1080 154 l 771 154 l 771 463 l 926 463 l 926 309 l 1080 309 l 1080 617 l 1234 617 l 1234 0 l 1080 0 m 154 463 l 154 926 l 0 926 l 0 1080 l 309 1080 l 309 463 l 154 463 m 0 0 l 0 154 l 154 154 l 154 309 l 309 309 l 309 463 l 463 463 l 463 617 l 617 617 l 617 771 l 771 771 l 771 926 l 926 926 l 926 1080 l 1234 1080 l 1234 926 l 1080 926 l 1080 771 l 926 771 l 926 617 l 771 617 l 771 463 l 617 463 l 617 309 l 463 309 l 463 154 l 309 154 l 309 0 l 0 0 z "},"½":{"ha":1389,"x_min":0,"x_max":1234,"o":"m 771 0 l 771 154 l 926 154 l 926 309 l 1080 309 l 1080 154 l 1234 154 l 1234 0 l 771 0 m 1080 309 l 1080 463 l 926 463 l 926 617 l 1234 617 l 1234 309 l 1080 309 m 154 463 l 154 926 l 0 926 l 0 1080 l 309 1080 l 309 463 l 154 463 m 0 0 l 0 154 l 154 154 l 154 309 l 309 309 l 309 463 l 463 463 l 463 617 l 617 617 l 617 771 l 771 771 l 771 926 l 926 926 l 926 1080 l 1234 1080 l 1234 926 l 1080 926 l 1080 771 l 926 771 l 926 617 l 771 617 l 771 463 l 617 463 l 617 309 l 463 309 l 463 154 l 309 154 l 309 0 l 0 0 z "},"¾":{"ha":1389,"x_min":0,"x_max":1234,"o":"m 0 463 l 0 617 l 309 617 l 309 463 l 0 463 m 1080 0 l 1080 154 l 771 154 l 771 463 l 926 463 l 926 309 l 1080 309 l 1080 617 l 1234 617 l 1234 0 l 1080 0 m 309 617 l 309 771 l 463 771 l 463 617 l 309 617 m 154 771 l 154 926 l 0 926 l 0 1080 l 463 1080 l 463 926 l 309 926 l 309 771 l 154 771 m 0 0 l 0 154 l 154 154 l 154 309 l 309 309 l 309 463 l 463 463 l 463 617 l 617 617 l 617 771 l 771 771 l 771 926 l 926 926 l 926 1080 l 1234 1080 l 1234 926 l 1080 926 l 1080 771 l 926 771 l 926 617 l 771 617 l 771 463 l 617 463 l 617 309 l 463 309 l 463 154 l 309 154 l 309 0 l 0 0 z "},"¿":{"ha":1389,"x_min":0,"x_max":1234,"o":"m 154 -309 l 154 -154 l 0 -154 l 0 309 l 154 309 l 154 463 l 926 463 l 926 309 l 309 309 l 309 -154 l 926 -154 l 926 0 l 1234 0 l 1234 -154 l 1080 -154 l 1080 -309 l 154 -309 m 617 617 l 617 771 l 926 771 l 926 617 l 617 617 z "},"À":{"ha":1389,"x_min":0,"x_max":1234,"o":"m 926 309 l 926 617 l 771 617 l 771 771 l 463 771 l 463 617 l 309 617 l 309 309 l 926 309 m 0 0 l 0 617 l 154 617 l 154 771 l 309 771 l 309 926 l 463 926 l 463 1080 l 771 1080 l 771 926 l 926 926 l 926 771 l 1080 771 l 1080 617 l 1234 617 l 1234 0 l 926 0 l 926 154 l 309 154 l 309 0 l 0 0 m 463 1234 l 463 1389 l 309 1389 l 309 1543 l 617 1543 l 617 1389 l 771 1389 l 771 1234 l 463 1234 z "},"Á":{"ha":1389,"x_min":0,"x_max":1234,"o":"m 926 309 l 926 617 l 771 617 l 771 771 l 463 771 l 463 617 l 309 617 l 309 309 l 926 309 m 0 0 l 0 617 l 154 617 l 154 771 l 309 771 l 309 926 l 463 926 l 463 1080 l 771 1080 l 771 926 l 926 926 l 926 771 l 1080 771 l 1080 617 l 1234 617 l 1234 0 l 926 0 l 926 154 l 309 154 l 309 0 l 0 0 m 463 1234 l 463 1389 l 617 1389 l 617 1543 l 926 1543 l 926 1389 l 771 1389 l 771 1234 l 463 1234 z "},"Â":{"ha":1389,"x_min":0,"x_max":1234,"o":"m 926 309 l 926 617 l 771 617 l 771 771 l 463 771 l 463 617 l 309 617 l 309 309 l 926 309 m 0 0 l 0 617 l 154 617 l 154 771 l 309 771 l 309 926 l 463 926 l 463 1080 l 771 1080 l 771 926 l 926 926 l 926 771 l 1080 771 l 1080 617 l 1234 617 l 1234 0 l 926 0 l 926 154 l 309 154 l 309 0 l 0 0 m 771 1234 l 771 1389 l 926 1389 l 926 1234 l 771 1234 m 309 1234 l 309 1389 l 463 1389 l 463 1543 l 771 1543 l 771 1389 l 617 1389 l 617 1234 l 309 1234 z "},"Ã":{"ha":1389,"x_min":0,"x_max":1234,"o":"m 926 309 l 926 617 l 771 617 l 771 771 l 463 771 l 463 617 l 309 617 l 309 309 l 926 309 m 0 0 l 0 617 l 154 617 l 154 771 l 309 771 l 309 926 l 463 926 l 463 1080 l 771 1080 l 771 926 l 926 926 l 926 771 l 1080 771 l 1080 617 l 1234 617 l 1234 0 l 926 0 l 926 154 l 309 154 l 309 0 l 0 0 m 154 1234 l 154 1389 l 309 1389 l 309 1543 l 617 1543 l 617 1389 l 463 1389 l 463 1234 l 154 1234 m 617 1234 l 617 1389 l 771 1389 l 771 1543 l 1080 1543 l 1080 1389 l 926 1389 l 926 1234 l 617 1234 z "},"Ä":{"ha":1389,"x_min":0,"x_max":1234,"o":"m 926 309 l 926 617 l 771 617 l 771 771 l 463 771 l 463 617 l 309 617 l 309 309 l 926 309 m 0 0 l 0 617 l 154 617 l 154 771 l 309 771 l 309 926 l 463 926 l 463 1080 l 771 1080 l 771 926 l 926 926 l 926 771 l 1080 771 l 1080 617 l 1234 617 l 1234 0 l 926 0 l 926 154 l 309 154 l 309 0 l 0 0 m 154 1234 l 154 1389 l 463 1389 l 463 1234 l 154 1234 m 771 1234 l 771 1389 l 1080 1389 l 1080 1234 l 771 1234 z "},"Å":{"ha":1389,"x_min":0,"x_max":1234,"o":"m 926 309 l 926 617 l 771 617 l 771 771 l 463 771 l 463 617 l 309 617 l 309 309 l 926 309 m 771 1080 l 771 1389 l 926 1389 l 926 1080 l 771 1080 m 0 0 l 0 617 l 154 617 l 154 771 l 309 771 l 309 926 l 463 926 l 463 1080 l 309 1080 l 309 1389 l 463 1389 l 463 1543 l 771 1543 l 771 1389 l 617 1389 l 617 1080 l 771 1080 l 771 926 l 926 926 l 926 771 l 1080 771 l 1080 617 l 1234 617 l 1234 0 l 926 0 l 926 154 l 309 154 l 309 0 l 0 0 z "},"Æ":{"ha":1543,"x_min":0,"x_max":1389,"o":"m 617 309 l 617 771 l 463 771 l 463 617 l 309 617 l 309 309 l 617 309 m 0 0 l 0 617 l 154 617 l 154 771 l 309 771 l 309 926 l 463 926 l 463 1080 l 1389 1080 l 1389 926 l 926 926 l 926 617 l 1234 617 l 1234 463 l 926 463 l 926 154 l 1389 154 l 1389 0 l 617 0 l 617 154 l 309 154 l 309 0 l 0 0 z "},"Ç":{"ha":1389,"x_min":0,"x_max":1234,"o":"m 309 -309 l 309 -154 l 463 -154 l 463 0 l 154 0 l 154 154 l 0 154 l 0 926 l 154 926 l 154 1080 l 1080 1080 l 1080 926 l 1234 926 l 1234 771 l 926 771 l 926 926 l 309 926 l 309 154 l 926 154 l 926 309 l 1234 309 l 1234 154 l 1080 154 l 1080 0 l 771 0 l 771 -154 l 617 -154 l 617 -309 l 309 -309 z "},"È":{"ha":1389,"x_min":0,"x_max":1234,"o":"m 0 0 l 0 1080 l 1234 1080 l 1234 926 l 309 926 l 309 617 l 926 617 l 926 463 l 309 463 l 309 154 l 1234 154 l 1234 0 l 0 0 m 463 1234 l 463 1389 l 309 1389 l 309 1543 l 617 1543 l 617 1389 l 771 1389 l 771 1234 l 463 1234 z "},"É":{"ha":1389,"x_min":0,"x_max":1234,"o":"m 0 0 l 0 1080 l 1234 1080 l 1234 926 l 309 926 l 309 617 l 926 617 l 926 463 l 309 463 l 309 154 l 1234 154 l 1234 0 l 0 0 m 463 1234 l 463 1389 l 617 1389 l 617 1543 l 926 1543 l 926 1389 l 771 1389 l 771 1234 l 463 1234 z "},"Ê":{"ha":1389,"x_min":0,"x_max":1234,"o":"m 0 0 l 0 1080 l 1234 1080 l 1234 926 l 309 926 l 309 617 l 926 617 l 926 463 l 309 463 l 309 154 l 1234 154 l 1234 0 l 0 0 m 771 1234 l 771 1389 l 926 1389 l 926 1234 l 771 1234 m 309 1234 l 309 1389 l 463 1389 l 463 1543 l 771 1543 l 771 1389 l 617 1389 l 617 1234 l 309 1234 z "},"Ë":{"ha":1389,"x_min":0,"x_max":1234,"o":"m 0 0 l 0 1080 l 1234 1080 l 1234 926 l 309 926 l 309 617 l 926 617 l 926 463 l 309 463 l 309 154 l 1234 154 l 1234 0 l 0 0 m 154 1234 l 154 1389 l 463 1389 l 463 1234 l 154 1234 m 771 1234 l 771 1389 l 1080 1389 l 1080 1234 l 771 1234 z "},"Ì":{"ha":771,"x_min":0,"x_max":617,"o":"m 0 0 l 0 154 l 154 154 l 154 926 l 0 926 l 0 1080 l 617 1080 l 617 926 l 463 926 l 463 154 l 617 154 l 617 0 l 0 0 m 154 1234 l 154 1389 l 0 1389 l 0 1543 l 309 1543 l 309 1389 l 463 1389 l 463 1234 l 154 1234 z "},"Í":{"ha":771,"x_min":0,"x_max":617,"o":"m 0 0 l 0 154 l 154 154 l 154 926 l 0 926 l 0 1080 l 617 1080 l 617 926 l 463 926 l 463 154 l 617 154 l 617 0 l 0 0 m 154 1234 l 154 1389 l 309 1389 l 309 1543 l 617 1543 l 617 1389 l 463 1389 l 463 1234 l 154 1234 z "},"Î":{"ha":771,"x_min":0,"x_max":617,"o":"m 0 0 l 0 154 l 154 154 l 154 926 l 0 926 l 0 1080 l 617 1080 l 617 926 l 463 926 l 463 154 l 617 154 l 617 0 l 0 0 m 463 1234 l 463 1389 l 617 1389 l 617 1234 l 463 1234 m 0 1234 l 0 1389 l 154 1389 l 154 1543 l 463 1543 l 463 1389 l 309 1389 l 309 1234 l 0 1234 z "},"Ï":{"ha":771,"x_min":0,"x_max":926,"o":"m 154 0 l 154 154 l 309 154 l 309 926 l 154 926 l 154 1080 l 771 1080 l 771 926 l 617 926 l 617 154 l 771 154 l 771 0 l 154 0 m 0 1234 l 0 1389 l 309 1389 l 309 1234 l 0 1234 m 617 1234 l 617 1389 l 926 1389 l 926 1234 l 617 1234 z "},"Ð":{"ha":1389,"x_min":0,"x_max":1234,"o":"m 926 154 l 926 926 l 463 926 l 463 617 l 771 617 l 771 463 l 463 463 l 463 154 l 926 154 m 154 0 l 154 463 l 0 463 l 0 617 l 154 617 l 154 1080 l 1080 1080 l 1080 926 l 1234 926 l 1234 154 l 1080 154 l 1080 0 l 154 0 z "},"Ñ":{"ha":1389,"x_min":0,"x_max":1234,"o":"m 0 0 l 0 1080 l 309 1080 l 309 926 l 463 926 l 463 771 l 617 771 l 617 617 l 771 617 l 771 463 l 926 463 l 926 1080 l 1234 1080 l 1234 0 l 926 0 l 926 154 l 771 154 l 771 309 l 617 309 l 617 463 l 463 463 l 463 617 l 309 617 l 309 0 l 0 0 m 154 1234 l 154 1389 l 309 1389 l 309 1543 l 617 1543 l 617 1389 l 463 1389 l 463 1234 l 154 1234 m 617 1234 l 617 1389 l 771 1389 l 771 1543 l 1080 1543 l 1080 1389 l 926 1389 l 926 1234 l 617 1234 z "},"Ò":{"ha":1389,"x_min":0,"x_max":1234,"o":"m 926 154 l 926 926 l 309 926 l 309 154 l 926 154 m 154 0 l 154 154 l 0 154 l 0 926 l 154 926 l 154 1080 l 1080 1080 l 1080 926 l 1234 926 l 1234 154 l 1080 154 l 1080 0 l 154 0 m 463 1234 l 463 1389 l 309 1389 l 309 1543 l 617 1543 l 617 1389 l 771 1389 l 771 1234 l 463 1234 z "},"Ó":{"ha":1389,"x_min":0,"x_max":1234,"o":"m 926 154 l 926 926 l 309 926 l 309 154 l 926 154 m 154 0 l 154 154 l 0 154 l 0 926 l 154 926 l 154 1080 l 1080 1080 l 1080 926 l 1234 926 l 1234 154 l 1080 154 l 1080 0 l 154 0 m 463 1234 l 463 1389 l 617 1389 l 617 1543 l 926 1543 l 926 1389 l 771 1389 l 771 1234 l 463 1234 z "},"Ô":{"ha":1389,"x_min":0,"x_max":1234,"o":"m 926 154 l 926 926 l 309 926 l 309 154 l 926 154 m 154 0 l 154 154 l 0 154 l 0 926 l 154 926 l 154 1080 l 1080 1080 l 1080 926 l 1234 926 l 1234 154 l 1080 154 l 1080 0 l 154 0 m 771 1234 l 771 1389 l 926 1389 l 926 1234 l 771 1234 m 309 1234 l 309 1389 l 463 1389 l 463 1543 l 771 1543 l 771 1389 l 617 1389 l 617 1234 l 309 1234 z "},"Õ":{"ha":1389,"x_min":0,"x_max":1234,"o":"m 926 154 l 926 926 l 309 926 l 309 154 l 926 154 m 154 0 l 154 154 l 0 154 l 0 926 l 154 926 l 154 1080 l 1080 1080 l 1080 926 l 1234 926 l 1234 154 l 1080 154 l 1080 0 l 154 0 m 154 1234 l 154 1389 l 309 1389 l 309 1543 l 617 1543 l 617 1389 l 463 1389 l 463 1234 l 154 1234 m 617 1234 l 617 1389 l 771 1389 l 771 1543 l 1080 1543 l 1080 1389 l 926 1389 l 926 1234 l 617 1234 z "},"Ö":{"ha":1389,"x_min":0,"x_max":1234,"o":"m 926 154 l 926 926 l 309 926 l 309 154 l 926 154 m 154 0 l 154 154 l 0 154 l 0 926 l 154 926 l 154 1080 l 1080 1080 l 1080 926 l 1234 926 l 1234 154 l 1080 154 l 1080 0 l 154 0 m 154 1234 l 154 1389 l 463 1389 l 463 1234 l 154 1234 m 771 1234 l 771 1389 l 1080 1389 l 1080 1234 l 771 1234 z "},"×":{"ha":1080,"x_min":0,"x_max":926,"o":"m 0 154 l 0 309 l 154 309 l 154 463 l 309 463 l 309 617 l 154 617 l 154 771 l 0 771 l 0 926 l 309 926 l 309 771 l 617 771 l 617 926 l 926 926 l 926 771 l 771 771 l 771 617 l 617 617 l 617 463 l 771 463 l 771 309 l 926 309 l 926 154 l 617 154 l 617 309 l 309 309 l 309 154 l 0 154 z "},"Ø":{"ha":1389,"x_min":0,"x_max":1234,"o":"m 926 154 l 926 617 l 771 617 l 771 463 l 617 463 l 617 309 l 463 309 l 463 154 l 926 154 m 463 463 l 463 617 l 617 617 l 617 771 l 771 771 l 771 926 l 309 926 l 309 463 l 463 463 m 0 0 l 0 309 l 154 309 l 154 463 l 0 463 l 0 926 l 154 926 l 154 1080 l 926 1080 l 926 926 l 1080 926 l 1080 1080 l 1234 1080 l 1234 771 l 1080 771 l 1080 617 l 1234 617 l 1234 154 l 1080 154 l 1080 0 l 309 0 l 309 154 l 154 154 l 154 0 l 0 0 z "},"Ù":{"ha":1389,"x_min":0,"x_max":1234,"o":"m 154 0 l 154 154 l 0 154 l 0 1080 l 309 1080 l 309 154 l 926 154 l 926 1080 l 1234 1080 l 1234 154 l 1080 154 l 1080 0 l 154 0 m 463 1234 l 463 1389 l 309 1389 l 309 1543 l 617 1543 l 617 1389 l 771 1389 l 771 1234 l 463 1234 z "},"Ú":{"ha":1389,"x_min":0,"x_max":1234,"o":"m 154 0 l 154 154 l 0 154 l 0 1080 l 309 1080 l 309 154 l 926 154 l 926 1080 l 1234 1080 l 1234 154 l 1080 154 l 1080 0 l 154 0 m 463 1234 l 463 1389 l 617 1389 l 617 1543 l 926 1543 l 926 1389 l 771 1389 l 771 1234 l 463 1234 z "},"Û":{"ha":1389,"x_min":0,"x_max":1234,"o":"m 154 0 l 154 154 l 0 154 l 0 1080 l 309 1080 l 309 154 l 926 154 l 926 1080 l 1234 1080 l 1234 154 l 1080 154 l 1080 0 l 154 0 m 771 1234 l 771 1389 l 926 1389 l 926 1234 l 771 1234 m 309 1234 l 309 1389 l 463 1389 l 463 1543 l 771 1543 l 771 1389 l 617 1389 l 617 1234 l 309 1234 z "},"Ü":{"ha":1389,"x_min":0,"x_max":1234,"o":"m 154 0 l 154 154 l 0 154 l 0 1080 l 309 1080 l 309 154 l 926 154 l 926 1080 l 1234 1080 l 1234 154 l 1080 154 l 1080 0 l 154 0 m 154 1234 l 154 1389 l 463 1389 l 463 1234 l 154 1234 m 771 1234 l 771 1389 l 1080 1389 l 1080 1234 l 771 1234 z "},"Ý":{"ha":1389,"x_min":0,"x_max":1234,"o":"m 463 0 l 463 463 l 309 463 l 309 617 l 154 617 l 154 771 l 0 771 l 0 1080 l 309 1080 l 309 771 l 463 771 l 463 617 l 771 617 l 771 771 l 926 771 l 926 1080 l 1234 1080 l 1234 771 l 1080 771 l 1080 617 l 926 617 l 926 463 l 771 463 l 771 0 l 463 0 m 463 1234 l 463 1389 l 617 1389 l 617 1543 l 926 1543 l 926 1389 l 771 1389 l 771 1234 l 463 1234 z "},"Þ":{"ha":1389,"x_min":0,"x_max":1234,"o":"m 926 309 l 926 771 l 309 771 l 309 309 l 926 309 m 0 0 l 0 1080 l 309 1080 l 309 926 l 1080 926 l 1080 771 l 1234 771 l 1234 309 l 1080 309 l 1080 154 l 309 154 l 309 0 l 0 0 z "},"ß":{"ha":1080,"x_min":0,"x_max":926,"o":"m 0 0 l 0 926 l 154 926 l 154 1080 l 771 1080 l 771 926 l 926 926 l 926 617 l 771 617 l 771 463 l 926 463 l 926 154 l 771 154 l 771 0 l 463 0 l 463 154 l 617 154 l 617 463 l 463 463 l 463 617 l 617 617 l 617 926 l 309 926 l 309 0 l 0 0 z "},"à":{"ha":1080,"x_min":0,"x_max":926,"o":"m 154 0 l 154 154 l 0 154 l 0 617 l 154 617 l 154 771 l 771 771 l 771 617 l 926 617 l 926 0 l 771 0 l 771 154 l 617 154 l 617 617 l 309 617 l 309 154 l 617 154 l 617 0 l 154 0 m 309 926 l 309 1080 l 154 1080 l 154 1234 l 463 1234 l 463 1080 l 617 1080 l 617 926 l 309 926 z "},"á":{"ha":1080,"x_min":0,"x_max":926,"o":"m 154 0 l 154 154 l 0 154 l 0 617 l 154 617 l 154 771 l 771 771 l 771 617 l 926 617 l 926 0 l 771 0 l 771 154 l 617 154 l 617 617 l 309 617 l 309 154 l 617 154 l 617 0 l 154 0 m 309 926 l 309 1080 l 463 1080 l 463 1234 l 771 1234 l 771 1080 l 617 1080 l 617 926 l 309 926 z "},"â":{"ha":1080,"x_min":0,"x_max":926,"o":"m 154 0 l 154 154 l 0 154 l 0 617 l 154 617 l 154 771 l 771 771 l 771 617 l 926 617 l 926 0 l 771 0 l 771 154 l 617 154 l 617 617 l 309 617 l 309 154 l 617 154 l 617 0 l 154 0 m 617 926 l 617 1080 l 771 1080 l 771 926 l 617 926 m 154 926 l 154 1080 l 309 1080 l 309 1234 l 617 1234 l 617 1080 l 463 1080 l 463 926 l 154 926 z "},"ã":{"ha":1080,"x_min":0,"x_max":926,"o":"m 154 0 l 154 154 l 0 154 l 0 617 l 154 617 l 154 771 l 771 771 l 771 617 l 926 617 l 926 0 l 771 0 l 771 154 l 617 154 l 617 617 l 309 617 l 309 154 l 617 154 l 617 0 l 154 0 m 0 926 l 0 1080 l 154 1080 l 154 1234 l 463 1234 l 463 1080 l 309 1080 l 309 926 l 0 926 m 463 926 l 463 1080 l 617 1080 l 617 1234 l 926 1234 l 926 1080 l 771 1080 l 771 926 l 463 926 z "},"ä":{"ha":1080,"x_min":0,"x_max":926,"o":"m 154 0 l 154 154 l 0 154 l 0 617 l 154 617 l 154 771 l 771 771 l 771 617 l 926 617 l 926 0 l 771 0 l 771 154 l 617 154 l 617 617 l 309 617 l 309 154 l 617 154 l 617 0 l 154 0 m 0 926 l 0 1080 l 309 1080 l 309 926 l 0 926 m 617 926 l 617 1080 l 926 1080 l 926 926 l 617 926 z "},"å":{"ha":1080,"x_min":0,"x_max":926,"o":"m 154 0 l 154 154 l 0 154 l 0 617 l 154 617 l 154 1080 l 309 1080 l 309 1234 l 617 1234 l 617 1080 l 463 1080 l 463 771 l 617 771 l 617 1080 l 771 1080 l 771 617 l 926 617 l 926 0 l 771 0 l 771 154 l 617 154 l 617 617 l 309 617 l 309 154 l 617 154 l 617 0 l 154 0 z "},"æ":{"ha":1543,"x_min":0,"x_max":1389,"o":"m 1080 463 l 1080 617 l 771 617 l 771 463 l 1080 463 m 154 0 l 154 154 l 0 154 l 0 617 l 154 617 l 154 771 l 1234 771 l 1234 617 l 1389 617 l 1389 309 l 926 309 l 926 154 l 1234 154 l 1234 0 l 771 0 l 771 154 l 617 154 l 617 309 l 463 309 l 463 617 l 309 617 l 309 154 l 617 154 l 617 0 l 154 0 z "},"ç":{"ha":1080,"x_min":0,"x_max":926,"o":"m 154 -309 l 154 -154 l 309 -154 l 309 0 l 154 0 l 154 154 l 0 154 l 0 617 l 154 617 l 154 771 l 771 771 l 771 617 l 926 617 l 926 463 l 617 463 l 617 617 l 309 617 l 309 154 l 617 154 l 617 309 l 926 309 l 926 154 l 771 154 l 771 0 l 617 0 l 617 -154 l 463 -154 l 463 -309 l 154 -309 z "},"è":{"ha":1080,"x_min":0,"x_max":926,"o":"m 617 463 l 617 617 l 309 617 l 309 463 l 617 463 m 154 0 l 154 154 l 0 154 l 0 617 l 154 617 l 154 771 l 771 771 l 771 617 l 926 617 l 926 309 l 309 309 l 309 154 l 771 154 l 771 0 l 154 0 m 309 926 l 309 1080 l 154 1080 l 154 1234 l 463 1234 l 463 1080 l 617 1080 l 617 926 l 309 926 z "},"é":{"ha":1080,"x_min":0,"x_max":926,"o":"m 617 463 l 617 617 l 309 617 l 309 463 l 617 463 m 154 0 l 154 154 l 0 154 l 0 617 l 154 617 l 154 771 l 771 771 l 771 617 l 926 617 l 926 309 l 309 309 l 309 154 l 771 154 l 771 0 l 154 0 m 309 926 l 309 1080 l 463 1080 l 463 1234 l 771 1234 l 771 1080 l 617 1080 l 617 926 l 309 926 z "},"ê":{"ha":1080,"x_min":0,"x_max":926,"o":"m 617 463 l 617 617 l 309 617 l 309 463 l 617 463 m 154 0 l 154 154 l 0 154 l 0 617 l 154 617 l 154 771 l 771 771 l 771 617 l 926 617 l 926 309 l 309 309 l 309 154 l 771 154 l 771 0 l 154 0 m 617 926 l 617 1080 l 771 1080 l 771 926 l 617 926 m 154 926 l 154 1080 l 309 1080 l 309 1234 l 617 1234 l 617 1080 l 463 1080 l 463 926 l 154 926 z "},"ë":{"ha":1080,"x_min":0,"x_max":926,"o":"m 617 463 l 617 617 l 309 617 l 309 463 l 617 463 m 154 0 l 154 154 l 0 154 l 0 617 l 154 617 l 154 771 l 771 771 l 771 617 l 926 617 l 926 309 l 309 309 l 309 154 l 771 154 l 771 0 l 154 0 m 0 926 l 0 1080 l 309 1080 l 309 926 l 0 926 m 617 926 l 617 1080 l 926 1080 l 926 926 l 617 926 z "},"ì":{"ha":617,"x_min":0,"x_max":463,"o":"m 154 0 l 154 771 l 463 771 l 463 0 l 154 0 m 154 926 l 154 1080 l 0 1080 l 0 1234 l 309 1234 l 309 1080 l 463 1080 l 463 926 l 154 926 z "},"í":{"ha":463,"x_min":0,"x_max":463,"o":"m 0 0 l 0 771 l 309 771 l 309 0 l 0 0 m 0 926 l 0 1080 l 154 1080 l 154 1234 l 463 1234 l 463 1080 l 309 1080 l 309 926 l 0 926 z "},"î":{"ha":617,"x_min":0,"x_max":617,"o":"m 154 0 l 154 771 l 463 771 l 463 0 l 154 0 m 463 926 l 463 1080 l 617 1080 l 617 926 l 463 926 m 0 926 l 0 1080 l 154 1080 l 154 1234 l 463 1234 l 463 1080 l 309 1080 l 309 926 l 0 926 z "},"ï":{"ha":771,"x_min":0,"x_max":926,"o":"m 309 0 l 309 771 l 617 771 l 617 0 l 309 0 m 0 926 l 0 1080 l 309 1080 l 309 926 l 0 926 m 617 926 l 617 1080 l 926 1080 l 926 926 l 617 926 z "},"ð":{"ha":1080,"x_min":0,"x_max":926,"o":"m 617 154 l 617 617 l 309 617 l 309 154 l 617 154 m 154 0 l 154 154 l 0 154 l 0 617 l 154 617 l 154 771 l 617 771 l 617 926 l 463 926 l 463 1080 l 771 1080 l 771 926 l 926 926 l 926 154 l 771 154 l 771 0 l 154 0 z "},"ñ":{"ha":1080,"x_min":0,"x_max":926,"o":"m 0 0 l 0 771 l 154 771 l 154 617 l 309 617 l 309 0 l 0 0 m 617 0 l 617 617 l 309 617 l 309 771 l 771 771 l 771 617 l 926 617 l 926 0 l 617 0 m 0 926 l 0 1080 l 154 1080 l 154 1234 l 463 1234 l 463 1080 l 309 1080 l 309 926 l 0 926 m 463 926 l 463 1080 l 617 1080 l 617 1234 l 926 1234 l 926 1080 l 771 1080 l 771 926 l 463 926 z "},"ò":{"ha":1080,"x_min":0,"x_max":926,"o":"m 617 154 l 617 617 l 309 617 l 309 154 l 617 154 m 154 0 l 154 154 l 0 154 l 0 617 l 154 617 l 154 771 l 771 771 l 771 617 l 926 617 l 926 154 l 771 154 l 771 0 l 154 0 m 309 926 l 309 1080 l 154 1080 l 154 1234 l 463 1234 l 463 1080 l 617 1080 l 617 926 l 309 926 z "},"ó":{"ha":1080,"x_min":0,"x_max":926,"o":"m 617 154 l 617 617 l 309 617 l 309 154 l 617 154 m 154 0 l 154 154 l 0 154 l 0 617 l 154 617 l 154 771 l 771 771 l 771 617 l 926 617 l 926 154 l 771 154 l 771 0 l 154 0 m 309 926 l 309 1080 l 463 1080 l 463 1234 l 771 1234 l 771 1080 l 617 1080 l 617 926 l 309 926 z "},"ô":{"ha":1080,"x_min":0,"x_max":926,"o":"m 617 154 l 617 617 l 309 617 l 309 154 l 617 154 m 154 0 l 154 154 l 0 154 l 0 617 l 154 617 l 154 771 l 771 771 l 771 617 l 926 617 l 926 154 l 771 154 l 771 0 l 154 0 m 617 926 l 617 1080 l 771 1080 l 771 926 l 617 926 m 154 926 l 154 1080 l 309 1080 l 309 1234 l 617 1234 l 617 1080 l 463 1080 l 463 926 l 154 926 z "},"õ":{"ha":1080,"x_min":0,"x_max":926,"o":"m 617 154 l 617 617 l 309 617 l 309 154 l 617 154 m 154 0 l 154 154 l 0 154 l 0 617 l 154 617 l 154 771 l 771 771 l 771 617 l 926 617 l 926 154 l 771 154 l 771 0 l 154 0 m 0 926 l 0 1080 l 154 1080 l 154 1234 l 463 1234 l 463 1080 l 309 1080 l 309 926 l 0 926 m 463 926 l 463 1080 l 617 1080 l 617 1234 l 926 1234 l 926 1080 l 771 1080 l 771 926 l 463 926 z "},"ö":{"ha":1080,"x_min":0,"x_max":926,"o":"m 617 154 l 617 617 l 309 617 l 309 154 l 617 154 m 154 0 l 154 154 l 0 154 l 0 617 l 154 617 l 154 771 l 771 771 l 771 617 l 926 617 l 926 154 l 771 154 l 771 0 l 154 0 m 0 926 l 0 1080 l 309 1080 l 309 926 l 0 926 m 617 926 l 617 1080 l 926 1080 l 926 926 l 617 926 z "},"÷":{"ha":1389,"x_min":0,"x_max":1234,"o":"m 463 154 l 463 309 l 771 309 l 771 154 l 463 154 m 0 463 l 0 617 l 1234 617 l 1234 463 l 0 463 m 463 771 l 463 926 l 771 926 l 771 771 l 463 771 z "},"ø":{"ha":1080,"x_min":0,"x_max":926,"o":"m 617 154 l 617 309 l 463 309 l 463 154 l 617 154 m 463 463 l 463 617 l 309 617 l 309 463 l 463 463 m 0 0 l 0 309 l 154 309 l 154 463 l 0 463 l 0 617 l 154 617 l 154 771 l 617 771 l 617 617 l 771 617 l 771 771 l 926 771 l 926 463 l 771 463 l 771 309 l 926 309 l 926 154 l 771 154 l 771 0 l 309 0 l 309 154 l 154 154 l 154 0 l 0 0 z "},"ù":{"ha":1080,"x_min":0,"x_max":926,"o":"m 154 0 l 154 154 l 0 154 l 0 771 l 309 771 l 309 154 l 617 154 l 617 0 l 154 0 m 771 0 l 771 154 l 617 154 l 617 771 l 926 771 l 926 0 l 771 0 m 309 926 l 309 1080 l 154 1080 l 154 1234 l 463 1234 l 463 1080 l 617 1080 l 617 926 l 309 926 z "},"ú":{"ha":1080,"x_min":0,"x_max":926,"o":"m 154 0 l 154 154 l 0 154 l 0 771 l 309 771 l 309 154 l 617 154 l 617 0 l 154 0 m 771 0 l 771 154 l 617 154 l 617 771 l 926 771 l 926 0 l 771 0 m 309 926 l 309 1080 l 463 1080 l 463 1234 l 771 1234 l 771 1080 l 617 1080 l 617 926 l 309 926 z "},"û":{"ha":1080,"x_min":0,"x_max":926,"o":"m 154 0 l 154 154 l 0 154 l 0 771 l 309 771 l 309 154 l 617 154 l 617 0 l 154 0 m 771 0 l 771 154 l 617 154 l 617 771 l 926 771 l 926 0 l 771 0 m 617 926 l 617 1080 l 771 1080 l 771 926 l 617 926 m 154 926 l 154 1080 l 309 1080 l 309 1234 l 617 1234 l 617 1080 l 463 1080 l 463 926 l 154 926 z "},"ü":{"ha":1080,"x_min":0,"x_max":926,"o":"m 154 0 l 154 154 l 0 154 l 0 771 l 309 771 l 309 154 l 617 154 l 617 0 l 154 0 m 771 0 l 771 154 l 617 154 l 617 771 l 926 771 l 926 0 l 771 0 m 0 926 l 0 1080 l 309 1080 l 309 926 l 0 926 m 617 926 l 617 1080 l 926 1080 l 926 926 l 617 926 z "},"ý":{"ha":1080,"x_min":0,"x_max":926,"o":"m 154 -309 l 154 -154 l 617 -154 l 617 0 l 154 0 l 154 154 l 0 154 l 0 771 l 309 771 l 309 154 l 617 154 l 617 771 l 926 771 l 926 -154 l 771 -154 l 771 -309 l 154 -309 m 309 926 l 309 1080 l 463 1080 l 463 1234 l 771 1234 l 771 1080 l 617 1080 l 617 926 l 309 926 z "},"þ":{"ha":1080,"x_min":0,"x_max":926,"o":"m 617 154 l 617 617 l 309 617 l 309 154 l 617 154 m 0 -154 l 0 926 l 309 926 l 309 771 l 771 771 l 771 617 l 926 617 l 926 154 l 771 154 l 771 0 l 309 0 l 309 -154 l 0 -154 z "},"ÿ":{"ha":1080,"x_min":0,"x_max":926,"o":"m 154 -309 l 154 -154 l 617 -154 l 617 0 l 154 0 l 154 154 l 0 154 l 0 771 l 309 771 l 309 154 l 617 154 l 617 771 l 926 771 l 926 -154 l 771 -154 l 771 -309 l 154 -309 m 0 926 l 0 1080 l 309 1080 l 309 926 l 0 926 m 617 926 l 617 1080 l 926 1080 l 926 926 l 617 926 z "},"Ā":{"ha":1389,"x_min":0,"x_max":1234,"o":"m 926 309 l 926 617 l 771 617 l 771 771 l 463 771 l 463 617 l 309 617 l 309 309 l 926 309 m 0 0 l 0 617 l 154 617 l 154 771 l 309 771 l 309 926 l 463 926 l 463 1080 l 771 1080 l 771 926 l 926 926 l 926 771 l 1080 771 l 1080 617 l 1234 617 l 1234 0 l 926 0 l 926 154 l 309 154 l 309 0 l 0 0 m 154 1234 l 154 1389 l 1080 1389 l 1080 1234 l 154 1234 z "},"ā":{"ha":1080,"x_min":0,"x_max":926,"o":"m 154 0 l 154 154 l 0 154 l 0 617 l 154 617 l 154 771 l 771 771 l 771 617 l 926 617 l 926 0 l 771 0 l 771 154 l 617 154 l 617 617 l 309 617 l 309 154 l 617 154 l 617 0 l 154 0 m 0 926 l 0 1080 l 926 1080 l 926 926 l 0 926 z "},"Ă":{"ha":1389,"x_min":0,"x_max":1234,"o":"m 926 309 l 926 617 l 771 617 l 771 771 l 463 771 l 463 617 l 309 617 l 309 309 l 926 309 m 0 0 l 0 617 l 154 617 l 154 771 l 309 771 l 309 926 l 463 926 l 463 1080 l 771 1080 l 771 926 l 926 926 l 926 771 l 1080 771 l 1080 617 l 1234 617 l 1234 0 l 926 0 l 926 154 l 309 154 l 309 0 l 0 0 m 463 1234 l 463 1389 l 771 1389 l 771 1234 l 463 1234 m 309 1389 l 309 1543 l 463 1543 l 463 1389 l 309 1389 m 771 1389 l 771 1543 l 926 1543 l 926 1389 l 771 1389 z "},"ă":{"ha":1080,"x_min":0,"x_max":926,"o":"m 154 0 l 154 154 l 0 154 l 0 617 l 154 617 l 154 771 l 771 771 l 771 617 l 926 617 l 926 0 l 771 0 l 771 154 l 617 154 l 617 617 l 309 617 l 309 154 l 617 154 l 617 0 l 154 0 m 309 926 l 309 1080 l 617 1080 l 617 926 l 309 926 m 154 1080 l 154 1234 l 309 1234 l 309 1080 l 154 1080 m 617 1080 l 617 1234 l 771 1234 l 771 1080 l 617 1080 z "},"Ą":{"ha":1389,"x_min":0,"x_max":1234,"o":"m 926 309 l 926 617 l 771 617 l 771 771 l 463 771 l 463 617 l 309 617 l 309 309 l 926 309 m 926 -309 l 926 -154 l 771 -154 l 771 0 l 926 0 l 926 154 l 309 154 l 309 0 l 0 0 l 0 617 l 154 617 l 154 771 l 309 771 l 309 926 l 463 926 l 463 1080 l 771 1080 l 771 926 l 926 926 l 926 771 l 1080 771 l 1080 617 l 1234 617 l 1234 0 l 1080 0 l 1080 -154 l 1234 -154 l 1234 -309 l 926 -309 z "},"ą":{"ha":1080,"x_min":0,"x_max":926,"o":"m 617 -309 l 617 -154 l 463 -154 l 463 0 l 154 0 l 154 154 l 0 154 l 0 617 l 154 617 l 154 771 l 771 771 l 771 617 l 926 617 l 926 0 l 771 0 l 771 154 l 617 154 l 617 617 l 309 617 l 309 154 l 617 154 l 617 0 l 771 0 l 771 -154 l 926 -154 l 926 -309 l 617 -309 z "},"Ć":{"ha":1389,"x_min":0,"x_max":1234,"o":"m 154 0 l 154 154 l 0 154 l 0 926 l 154 926 l 154 1080 l 1080 1080 l 1080 926 l 1234 926 l 1234 771 l 926 771 l 926 926 l 309 926 l 309 154 l 926 154 l 926 309 l 1234 309 l 1234 154 l 1080 154 l 1080 0 l 154 0 m 463 1234 l 463 1389 l 617 1389 l 617 1543 l 926 1543 l 926 1389 l 771 1389 l 771 1234 l 463 1234 z "},"ć":{"ha":1080,"x_min":0,"x_max":926,"o":"m 154 0 l 154 154 l 0 154 l 0 617 l 154 617 l 154 771 l 771 771 l 771 617 l 926 617 l 926 463 l 617 463 l 617 617 l 309 617 l 309 154 l 617 154 l 617 309 l 926 309 l 926 154 l 771 154 l 771 0 l 154 0 m 309 926 l 309 1080 l 463 1080 l 463 1234 l 771 1234 l 771 1080 l 617 1080 l 617 926 l 309 926 z "},"Ĉ":{"ha":1389,"x_min":0,"x_max":1234,"o":"m 154 0 l 154 154 l 0 154 l 0 926 l 154 926 l 154 1080 l 1080 1080 l 1080 926 l 1234 926 l 1234 771 l 926 771 l 926 926 l 309 926 l 309 154 l 926 154 l 926 309 l 1234 309 l 1234 154 l 1080 154 l 1080 0 l 154 0 m 771 1234 l 771 1389 l 926 1389 l 926 1234 l 771 1234 m 309 1234 l 309 1389 l 463 1389 l 463 1543 l 771 1543 l 771 1389 l 617 1389 l 617 1234 l 309 1234 z "},"ĉ":{"ha":1080,"x_min":0,"x_max":926,"o":"m 154 0 l 154 154 l 0 154 l 0 617 l 154 617 l 154 771 l 771 771 l 771 617 l 926 617 l 926 463 l 617 463 l 617 617 l 309 617 l 309 154 l 617 154 l 617 309 l 926 309 l 926 154 l 771 154 l 771 0 l 154 0 m 617 926 l 617 1080 l 771 1080 l 771 926 l 617 926 m 154 926 l 154 1080 l 309 1080 l 309 1234 l 617 1234 l 617 1080 l 463 1080 l 463 926 l 154 926 z "},"Ċ":{"ha":1389,"x_min":0,"x_max":1234,"o":"m 154 0 l 154 154 l 0 154 l 0 926 l 154 926 l 154 1080 l 1080 1080 l 1080 926 l 1234 926 l 1234 771 l 926 771 l 926 926 l 309 926 l 309 154 l 926 154 l 926 309 l 1234 309 l 1234 154 l 1080 154 l 1080 0 l 154 0 m 463 1234 l 463 1389 l 771 1389 l 771 1234 l 463 1234 z "},"ċ":{"ha":1080,"x_min":0,"x_max":926,"o":"m 154 0 l 154 154 l 0 154 l 0 617 l 154 617 l 154 771 l 771 771 l 771 617 l 926 617 l 926 463 l 617 463 l 617 617 l 309 617 l 309 154 l 617 154 l 617 309 l 926 309 l 926 154 l 771 154 l 771 0 l 154 0 m 309 926 l 309 1080 l 617 1080 l 617 926 l 309 926 z "},"Č":{"ha":1389,"x_min":0,"x_max":1234,"o":"m 154 0 l 154 154 l 0 154 l 0 926 l 154 926 l 154 1080 l 1080 1080 l 1080 926 l 1234 926 l 1234 771 l 926 771 l 926 926 l 309 926 l 309 154 l 926 154 l 926 309 l 1234 309 l 1234 154 l 1080 154 l 1080 0 l 154 0 m 463 1234 l 463 1389 l 309 1389 l 309 1543 l 617 1543 l 617 1389 l 771 1389 l 771 1234 l 463 1234 m 771 1389 l 771 1543 l 926 1543 l 926 1389 l 771 1389 z "},"č":{"ha":1080,"x_min":0,"x_max":926,"o":"m 154 0 l 154 154 l 0 154 l 0 617 l 154 617 l 154 771 l 771 771 l 771 617 l 926 617 l 926 463 l 617 463 l 617 617 l 309 617 l 309 154 l 617 154 l 617 309 l 926 309 l 926 154 l 771 154 l 771 0 l 154 0 m 309 926 l 309 1080 l 154 1080 l 154 1234 l 463 1234 l 463 1080 l 617 1080 l 617 926 l 309 926 m 617 1080 l 617 1234 l 771 1234 l 771 1080 l 617 1080 z "},"Ď":{"ha":1389,"x_min":0,"x_max":1234,"o":"m 926 154 l 926 926 l 309 926 l 309 154 l 926 154 m 0 0 l 0 1080 l 1080 1080 l 1080 926 l 1234 926 l 1234 154 l 1080 154 l 1080 0 l 0 0 m 463 1234 l 463 1389 l 309 1389 l 309 1543 l 617 1543 l 617 1389 l 771 1389 l 771 1234 l 463 1234 m 771 1389 l 771 1543 l 926 1543 l 926 1389 l 771 1389 z "},"ď":{"ha":1543,"x_min":0,"x_max":1389,"o":"m 154 0 l 154 154 l 0 154 l 0 617 l 154 617 l 154 771 l 617 771 l 617 1080 l 926 1080 l 926 0 l 771 0 l 771 154 l 617 154 l 617 617 l 309 617 l 309 154 l 617 154 l 617 0 l 154 0 m 1080 617 l 1080 1080 l 1389 1080 l 1389 771 l 1234 771 l 1234 617 l 1080 617 z "},"Đ":{"ha":1389,"x_min":0,"x_max":1234,"o":"m 926 154 l 926 926 l 463 926 l 463 617 l 771 617 l 771 463 l 463 463 l 463 154 l 926 154 m 154 0 l 154 463 l 0 463 l 0 617 l 154 617 l 154 1080 l 1080 1080 l 1080 926 l 1234 926 l 1234 154 l 1080 154 l 1080 0 l 154 0 z "},"đ":{"ha":1234,"x_min":0,"x_max":1080,"o":"m 154 0 l 154 154 l 0 154 l 0 617 l 154 617 l 154 771 l 617 771 l 617 926 l 463 926 l 463 1080 l 1080 1080 l 1080 926 l 926 926 l 926 0 l 771 0 l 771 154 l 617 154 l 617 617 l 309 617 l 309 154 l 617 154 l 617 0 l 154 0 z "},"Ē":{"ha":1389,"x_min":0,"x_max":1234,"o":"m 0 0 l 0 1080 l 1234 1080 l 1234 926 l 309 926 l 309 617 l 926 617 l 926 463 l 309 463 l 309 154 l 1234 154 l 1234 0 l 0 0 m 154 1234 l 154 1389 l 1080 1389 l 1080 1234 l 154 1234 z "},"ē":{"ha":1080,"x_min":0,"x_max":926,"o":"m 617 463 l 617 617 l 309 617 l 309 463 l 617 463 m 154 0 l 154 154 l 0 154 l 0 617 l 154 617 l 154 771 l 771 771 l 771 617 l 926 617 l 926 309 l 309 309 l 309 154 l 771 154 l 771 0 l 154 0 m 0 926 l 0 1080 l 926 1080 l 926 926 l 0 926 z "},"Ĕ":{"ha":1389,"x_min":0,"x_max":1234,"o":"m 0 0 l 0 1080 l 1234 1080 l 1234 926 l 309 926 l 309 617 l 926 617 l 926 463 l 309 463 l 309 154 l 1234 154 l 1234 0 l 0 0 m 463 1234 l 463 1389 l 771 1389 l 771 1234 l 463 1234 m 309 1389 l 309 1543 l 463 1543 l 463 1389 l 309 1389 m 771 1389 l 771 1543 l 926 1543 l 926 1389 l 771 1389 z "},"ĕ":{"ha":1080,"x_min":0,"x_max":926,"o":"m 617 463 l 617 617 l 309 617 l 309 463 l 617 463 m 154 0 l 154 154 l 0 154 l 0 617 l 154 617 l 154 771 l 771 771 l 771 617 l 926 617 l 926 309 l 309 309 l 309 154 l 771 154 l 771 0 l 154 0 m 309 926 l 309 1080 l 617 1080 l 617 926 l 309 926 m 154 1080 l 154 1234 l 309 1234 l 309 1080 l 154 1080 m 617 1080 l 617 1234 l 771 1234 l 771 1080 l 617 1080 z "},"Ė":{"ha":1389,"x_min":0,"x_max":1234,"o":"m 0 0 l 0 1080 l 1234 1080 l 1234 926 l 309 926 l 309 617 l 926 617 l 926 463 l 309 463 l 309 154 l 1234 154 l 1234 0 l 0 0 m 463 1234 l 463 1389 l 771 1389 l 771 1234 l 463 1234 z "},"ė":{"ha":1080,"x_min":0,"x_max":926,"o":"m 617 463 l 617 617 l 309 617 l 309 463 l 617 463 m 154 0 l 154 154 l 0 154 l 0 617 l 154 617 l 154 771 l 771 771 l 771 617 l 926 617 l 926 309 l 309 309 l 309 154 l 771 154 l 771 0 l 154 0 m 309 926 l 309 1080 l 617 1080 l 617 926 l 309 926 z "},"Ę":{"ha":1389,"x_min":0,"x_max":1234,"o":"m 926 -309 l 926 -154 l 771 -154 l 771 0 l 0 0 l 0 1080 l 1234 1080 l 1234 926 l 309 926 l 309 617 l 926 617 l 926 463 l 309 463 l 309 154 l 1234 154 l 1234 0 l 1080 0 l 1080 -154 l 1234 -154 l 1234 -309 l 926 -309 z "},"ę":{"ha":1080,"x_min":0,"x_max":926,"o":"m 617 463 l 617 617 l 309 617 l 309 463 l 617 463 m 463 -309 l 463 -154 l 309 -154 l 309 0 l 154 0 l 154 154 l 0 154 l 0 617 l 154 617 l 154 771 l 771 771 l 771 617 l 926 617 l 926 309 l 309 309 l 309 154 l 771 154 l 771 0 l 617 0 l 617 -154 l 771 -154 l 771 -309 l 463 -309 z "},"Ě":{"ha":1389,"x_min":0,"x_max":1234,"o":"m 0 0 l 0 1080 l 1234 1080 l 1234 926 l 309 926 l 309 617 l 926 617 l 926 463 l 309 463 l 309 154 l 1234 154 l 1234 0 l 0 0 m 463 1234 l 463 1389 l 309 1389 l 309 1543 l 617 1543 l 617 1389 l 771 1389 l 771 1234 l 463 1234 m 771 1389 l 771 1543 l 926 1543 l 926 1389 l 771 1389 z "},"ě":{"ha":1080,"x_min":0,"x_max":926,"o":"m 617 463 l 617 617 l 309 617 l 309 463 l 617 463 m 154 0 l 154 154 l 0 154 l 0 617 l 154 617 l 154 771 l 771 771 l 771 617 l 926 617 l 926 309 l 309 309 l 309 154 l 771 154 l 771 0 l 154 0 m 309 926 l 309 1080 l 154 1080 l 154 1234 l 463 1234 l 463 1080 l 617 1080 l 617 926 l 309 926 m 617 1080 l 617 1234 l 771 1234 l 771 1080 l 617 1080 z "},"Ĝ":{"ha":1389,"x_min":0,"x_max":1234,"o":"m 154 0 l 154 154 l 0 154 l 0 926 l 154 926 l 154 1080 l 1080 1080 l 1080 926 l 1234 926 l 1234 771 l 926 771 l 926 926 l 309 926 l 309 154 l 926 154 l 926 463 l 617 463 l 617 617 l 1234 617 l 1234 154 l 1080 154 l 1080 0 l 154 0 m 771 1234 l 771 1389 l 926 1389 l 926 1234 l 771 1234 m 309 1234 l 309 1389 l 463 1389 l 463 1543 l 771 1543 l 771 1389 l 617 1389 l 617 1234 l 309 1234 z "},"ĝ":{"ha":1080,"x_min":0,"x_max":926,"o":"m 154 -309 l 154 -154 l 617 -154 l 617 0 l 154 0 l 154 154 l 0 154 l 0 617 l 154 617 l 154 771 l 617 771 l 617 617 l 309 617 l 309 154 l 617 154 l 617 617 l 771 617 l 771 771 l 926 771 l 926 -154 l 771 -154 l 771 -309 l 154 -309 m 617 926 l 617 1080 l 771 1080 l 771 926 l 617 926 m 154 926 l 154 1080 l 309 1080 l 309 1234 l 617 1234 l 617 1080 l 463 1080 l 463 926 l 154 926 z "},"Ğ":{"ha":1389,"x_min":0,"x_max":1234,"o":"m 154 0 l 154 154 l 0 154 l 0 926 l 154 926 l 154 1080 l 1080 1080 l 1080 926 l 1234 926 l 1234 771 l 926 771 l 926 926 l 309 926 l 309 154 l 926 154 l 926 463 l 617 463 l 617 617 l 1234 617 l 1234 154 l 1080 154 l 1080 0 l 154 0 m 463 1234 l 463 1389 l 771 1389 l 771 1234 l 463 1234 m 309 1389 l 309 1543 l 463 1543 l 463 1389 l 309 1389 m 771 1389 l 771 1543 l 926 1543 l 926 1389 l 771 1389 z "},"ğ":{"ha":1080,"x_min":0,"x_max":926,"o":"m 154 -309 l 154 -154 l 617 -154 l 617 0 l 154 0 l 154 154 l 0 154 l 0 617 l 154 617 l 154 771 l 617 771 l 617 617 l 309 617 l 309 154 l 617 154 l 617 617 l 771 617 l 771 771 l 926 771 l 926 -154 l 771 -154 l 771 -309 l 154 -309 m 309 926 l 309 1080 l 617 1080 l 617 926 l 309 926 m 154 1080 l 154 1234 l 309 1234 l 309 1080 l 154 1080 m 617 1080 l 617 1234 l 771 1234 l 771 1080 l 617 1080 z "},"Ġ":{"ha":1389,"x_min":0,"x_max":1234,"o":"m 154 0 l 154 154 l 0 154 l 0 926 l 154 926 l 154 1080 l 1080 1080 l 1080 926 l 1234 926 l 1234 771 l 926 771 l 926 926 l 309 926 l 309 154 l 926 154 l 926 463 l 617 463 l 617 617 l 1234 617 l 1234 154 l 1080 154 l 1080 0 l 154 0 m 463 1234 l 463 1389 l 771 1389 l 771 1234 l 463 1234 z "},"ġ":{"ha":1080,"x_min":0,"x_max":926,"o":"m 154 -309 l 154 -154 l 617 -154 l 617 0 l 154 0 l 154 154 l 0 154 l 0 617 l 154 617 l 154 771 l 617 771 l 617 617 l 309 617 l 309 154 l 617 154 l 617 617 l 771 617 l 771 771 l 926 771 l 926 -154 l 771 -154 l 771 -309 l 154 -309 m 309 926 l 309 1080 l 617 1080 l 617 926 l 309 926 z "},"Ģ":{"ha":1389,"x_min":0,"x_max":1234,"o":"m 309 -309 l 309 -154 l 463 -154 l 463 0 l 154 0 l 154 154 l 0 154 l 0 926 l 154 926 l 154 1080 l 1080 1080 l 1080 926 l 1234 926 l 1234 771 l 926 771 l 926 926 l 309 926 l 309 154 l 926 154 l 926 463 l 617 463 l 617 617 l 1234 617 l 1234 154 l 1080 154 l 1080 0 l 771 0 l 771 -154 l 617 -154 l 617 -309 l 309 -309 z "},"ģ":{"ha":1080,"x_min":0,"x_max":926,"o":"m 154 -309 l 154 -154 l 617 -154 l 617 0 l 154 0 l 154 154 l 0 154 l 0 617 l 154 617 l 154 771 l 617 771 l 617 617 l 309 617 l 309 154 l 617 154 l 617 617 l 771 617 l 771 771 l 926 771 l 926 -154 l 771 -154 l 771 -309 l 154 -309 m 309 926 l 309 1234 l 463 1234 l 463 1389 l 617 1389 l 617 926 l 309 926 z "},"Ĥ":{"ha":1389,"x_min":0,"x_max":1234,"o":"m 0 0 l 0 1080 l 309 1080 l 309 617 l 926 617 l 926 1080 l 1234 1080 l 1234 0 l 926 0 l 926 463 l 309 463 l 309 0 l 0 0 m 771 1234 l 771 1389 l 926 1389 l 926 1234 l 771 1234 m 309 1234 l 309 1389 l 463 1389 l 463 1543 l 771 1543 l 771 1389 l 617 1389 l 617 1234 l 309 1234 z "},"ĥ":{"ha":1234,"x_min":0,"x_max":1080,"o":"m 154 0 l 154 1080 l 463 1080 l 463 771 l 926 771 l 926 617 l 1080 617 l 1080 0 l 771 0 l 771 617 l 463 617 l 463 0 l 154 0 m 463 1234 l 463 1389 l 617 1389 l 617 1234 l 463 1234 m 0 1234 l 0 1389 l 154 1389 l 154 1543 l 463 1543 l 463 1389 l 309 1389 l 309 1234 l 0 1234 z "},"Ħ":{"ha":1389,"x_min":0,"x_max":1234,"o":"m 771 617 l 771 771 l 463 771 l 463 617 l 771 617 m 154 0 l 154 771 l 0 771 l 0 926 l 154 926 l 154 1080 l 463 1080 l 463 926 l 771 926 l 771 1080 l 1080 1080 l 1080 926 l 1234 926 l 1234 771 l 1080 771 l 1080 0 l 771 0 l 771 463 l 463 463 l 463 0 l 154 0 z "},"ħ":{"ha":1234,"x_min":0,"x_max":1080,"o":"m 154 0 l 154 926 l 0 926 l 0 1080 l 617 1080 l 617 926 l 463 926 l 463 771 l 926 771 l 926 617 l 1080 617 l 1080 0 l 771 0 l 771 617 l 463 617 l 463 0 l 154 0 z "},"Ĩ":{"ha":1080,"x_min":0,"x_max":926,"o":"m 154 0 l 154 154 l 309 154 l 309 926 l 154 926 l 154 1080 l 771 1080 l 771 926 l 617 926 l 617 154 l 771 154 l 771 0 l 154 0 m 0 1234 l 0 1389 l 154 1389 l 154 1543 l 463 1543 l 463 1389 l 309 1389 l 309 1234 l 0 1234 m 463 1234 l 463 1389 l 617 1389 l 617 1543 l 926 1543 l 926 1389 l 771 1389 l 771 1234 l 463 1234 z "},"ĩ":{"ha":1080,"x_min":0,"x_max":926,"o":"m 309 0 l 309 771 l 617 771 l 617 0 l 309 0 m 0 926 l 0 1080 l 154 1080 l 154 1234 l 463 1234 l 463 1080 l 309 1080 l 309 926 l 0 926 m 463 926 l 463 1080 l 617 1080 l 617 1234 l 926 1234 l 926 1080 l 771 1080 l 771 926 l 463 926 z "},"Ī":{"ha":771,"x_min":0,"x_max":617,"o":"m 0 0 l 0 154 l 154 154 l 154 926 l 0 926 l 0 1080 l 617 1080 l 617 926 l 463 926 l 463 154 l 617 154 l 617 0 l 0 0 m 0 1234 l 0 1389 l 617 1389 l 617 1234 l 0 1234 z "},"ī":{"ha":771,"x_min":0,"x_max":617,"o":"m 154 0 l 154 771 l 463 771 l 463 0 l 154 0 m 0 926 l 0 1080 l 617 1080 l 617 926 l 0 926 z "},"Ĭ":{"ha":771,"x_min":0,"x_max":617,"o":"m 0 0 l 0 154 l 154 154 l 154 926 l 0 926 l 0 1080 l 617 1080 l 617 926 l 463 926 l 463 154 l 617 154 l 617 0 l 0 0 m 154 1234 l 154 1389 l 463 1389 l 463 1234 l 154 1234 m 0 1389 l 0 1543 l 154 1543 l 154 1389 l 0 1389 m 463 1389 l 463 1543 l 617 1543 l 617 1389 l 463 1389 z "},"ĭ":{"ha":771,"x_min":0,"x_max":617,"o":"m 154 0 l 154 771 l 463 771 l 463 0 l 154 0 m 154 926 l 154 1080 l 463 1080 l 463 926 l 154 926 m 0 1080 l 0 1234 l 154 1234 l 154 1080 l 0 1080 m 463 1080 l 463 1234 l 617 1234 l 617 1080 l 463 1080 z "},"Į":{"ha":771,"x_min":0,"x_max":617,"o":"m 309 -309 l 309 -154 l 154 -154 l 154 0 l 0 0 l 0 154 l 154 154 l 154 926 l 0 926 l 0 1080 l 617 1080 l 617 926 l 463 926 l 463 154 l 617 154 l 617 0 l 463 0 l 463 -154 l 617 -154 l 617 -309 l 309 -309 z "},"į":{"ha":617,"x_min":0,"x_max":463,"o":"m 154 -309 l 154 -154 l 0 -154 l 0 0 l 154 0 l 154 771 l 463 771 l 463 0 l 309 0 l 309 -154 l 463 -154 l 463 -309 l 154 -309 m 154 926 l 154 1080 l 463 1080 l 463 926 l 154 926 z "},"İ":{"ha":771,"x_min":0,"x_max":617,"o":"m 0 0 l 0 154 l 154 154 l 154 926 l 0 926 l 0 1080 l 617 1080 l 617 926 l 463 926 l 463 154 l 617 154 l 617 0 l 0 0 m 154 1234 l 154 1389 l 463 1389 l 463 1234 l 154 1234 z "},"ı":{"ha":463,"x_min":0,"x_max":309,"o":"m 0 0 l 0 771 l 309 771 l 309 0 l 0 0 z "},"Ĳ":{"ha":1543,"x_min":0,"x_max":1389,"o":"m 0 0 l 0 154 l 154 154 l 154 926 l 0 926 l 0 1080 l 617 1080 l 617 926 l 463 926 l 463 154 l 617 154 l 617 0 l 0 0 m 771 0 l 771 154 l 926 154 l 926 926 l 771 926 l 771 1080 l 1389 1080 l 1389 926 l 1234 926 l 1234 154 l 1080 154 l 1080 0 l 771 0 z "},"ĳ":{"ha":1080,"x_min":0,"x_max":926,"o":"m 0 0 l 0 771 l 309 771 l 309 0 l 0 0 m 463 -154 l 463 0 l 617 0 l 617 771 l 926 771 l 926 0 l 771 0 l 771 -154 l 463 -154 m 0 926 l 0 1080 l 309 1080 l 309 926 l 0 926 m 617 926 l 617 1080 l 926 1080 l 926 926 l 617 926 z "},"Ĵ":{"ha":1389,"x_min":0,"x_max":1234,"o":"m 154 0 l 154 154 l 0 154 l 0 309 l 309 309 l 309 154 l 617 154 l 617 926 l 0 926 l 0 1080 l 1234 1080 l 1234 926 l 926 926 l 926 154 l 771 154 l 771 0 l 154 0 m 771 1234 l 771 1389 l 926 1389 l 926 1234 l 771 1234 m 309 1234 l 309 1389 l 463 1389 l 463 1543 l 771 1543 l 771 1389 l 617 1389 l 617 1234 l 309 1234 z "},"ĵ":{"ha":771,"x_min":0,"x_max":617,"o":"m 0 -154 l 0 0 l 154 0 l 154 771 l 463 771 l 463 0 l 309 0 l 309 -154 l 0 -154 m 463 926 l 463 1080 l 617 1080 l 617 926 l 463 926 m 0 926 l 0 1080 l 154 1080 l 154 1234 l 463 1234 l 463 1080 l 309 1080 l 309 926 l 0 926 z "},"Ķ":{"ha":1389,"x_min":0,"x_max":1234,"o":"m 309 -309 l 309 -154 l 463 -154 l 463 0 l 771 0 l 771 -154 l 617 -154 l 617 -309 l 309 -309 m 0 0 l 0 1080 l 309 1080 l 309 617 l 617 617 l 617 771 l 771 771 l 771 926 l 926 926 l 926 1080 l 1234 1080 l 1234 926 l 1080 926 l 1080 771 l 926 771 l 926 617 l 771 617 l 771 463 l 926 463 l 926 309 l 1080 309 l 1080 154 l 1234 154 l 1234 0 l 926 0 l 926 154 l 771 154 l 771 309 l 617 309 l 617 463 l 309 463 l 309 0 l 0 0 z "},"ķ":{"ha":1080,"x_min":0,"x_max":926,"o":"m 154 -309 l 154 -154 l 309 -154 l 309 0 l 617 0 l 617 -154 l 463 -154 l 463 -309 l 154 -309 m 0 0 l 0 1080 l 309 1080 l 309 463 l 463 463 l 463 617 l 617 617 l 617 771 l 926 771 l 926 617 l 771 617 l 771 463 l 617 463 l 617 309 l 771 309 l 771 154 l 926 154 l 926 0 l 617 0 l 617 154 l 463 154 l 463 309 l 309 309 l 309 0 l 0 0 z "},"ĸ":{"ha":1080,"x_min":0,"x_max":926,"o":"m 0 0 l 0 771 l 309 771 l 309 463 l 463 463 l 463 617 l 617 617 l 617 771 l 926 771 l 926 617 l 771 617 l 771 463 l 617 463 l 617 309 l 771 309 l 771 154 l 926 154 l 926 0 l 617 0 l 617 154 l 463 154 l 463 309 l 309 309 l 309 0 l 0 0 z "},"Ĺ":{"ha":1389,"x_min":0,"x_max":1234,"o":"m 0 0 l 0 1080 l 309 1080 l 309 154 l 1234 154 l 1234 0 l 0 0 m 0 1234 l 0 1389 l 154 1389 l 154 1543 l 463 1543 l 463 1389 l 309 1389 l 309 1234 l 0 1234 z "},"ĺ":{"ha":617,"x_min":0,"x_max":463,"o":"m 0 0 l 0 1080 l 309 1080 l 309 0 l 0 0 m 0 1234 l 0 1389 l 154 1389 l 154 1543 l 463 1543 l 463 1389 l 309 1389 l 309 1234 l 0 1234 z "},"Ļ":{"ha":1389,"x_min":0,"x_max":1234,"o":"m 309 -309 l 309 -154 l 463 -154 l 463 0 l 0 0 l 0 1080 l 309 1080 l 309 154 l 1234 154 l 1234 0 l 771 0 l 771 -154 l 617 -154 l 617 -309 l 309 -309 z "},"ļ":{"ha":617,"x_min":0,"x_max":463,"o":"m 0 -309 l 0 -154 l 154 -154 l 154 1080 l 463 1080 l 463 -154 l 309 -154 l 309 -309 l 0 -309 z "},"Ľ":{"ha":1389,"x_min":0,"x_max":1234,"o":"m 0 0 l 0 1080 l 309 1080 l 309 154 l 1234 154 l 1234 0 l 0 0 m 926 617 l 926 1080 l 1234 1080 l 1234 771 l 1080 771 l 1080 617 l 926 617 z "},"ľ":{"ha":926,"x_min":0,"x_max":771,"o":"m 0 0 l 0 1080 l 309 1080 l 309 0 l 0 0 m 463 617 l 463 1080 l 771 1080 l 771 771 l 617 771 l 617 617 l 463 617 z "},"Ŀ":{"ha":1389,"x_min":0,"x_max":1234,"o":"m 771 463 l 771 617 l 1080 617 l 1080 463 l 771 463 m 0 0 l 0 1080 l 309 1080 l 309 154 l 1234 154 l 1234 0 l 0 0 z "},"ŀ":{"ha":926,"x_min":0,"x_max":771,"o":"m 463 463 l 463 617 l 771 617 l 771 463 l 463 463 m 0 0 l 0 1080 l 309 1080 l 309 0 l 0 0 z "},"Ł":{"ha":1389,"x_min":0,"x_max":1234,"o":"m 154 0 l 154 309 l 0 309 l 0 617 l 154 617 l 154 1080 l 463 1080 l 463 771 l 617 771 l 617 926 l 771 926 l 771 617 l 617 617 l 617 463 l 463 463 l 463 154 l 1234 154 l 1234 0 l 154 0 z "},"ł":{"ha":926,"x_min":0,"x_max":771,"o":"m 154 0 l 154 309 l 0 309 l 0 617 l 154 617 l 154 1080 l 463 1080 l 463 771 l 617 771 l 617 926 l 771 926 l 771 617 l 617 617 l 617 463 l 463 463 l 463 0 l 154 0 z "},"Ń":{"ha":1389,"x_min":0,"x_max":1234,"o":"m 0 0 l 0 1080 l 309 1080 l 309 926 l 463 926 l 463 771 l 617 771 l 617 617 l 771 617 l 771 463 l 926 463 l 926 1080 l 1234 1080 l 1234 0 l 926 0 l 926 154 l 771 154 l 771 309 l 617 309 l 617 463 l 463 463 l 463 617 l 309 617 l 309 0 l 0 0 m 463 1080 l 463 1234 l 617 1234 l 617 1389 l 926 1389 l 926 1234 l 771 1234 l 771 1080 l 463 1080 z "},"ń":{"ha":1080,"x_min":0,"x_max":926,"o":"m 0 0 l 0 771 l 154 771 l 154 617 l 309 617 l 309 0 l 0 0 m 617 0 l 617 617 l 309 617 l 309 771 l 771 771 l 771 617 l 926 617 l 926 0 l 617 0 m 309 926 l 309 1080 l 463 1080 l 463 1234 l 771 1234 l 771 1080 l 617 1080 l 617 926 l 309 926 z "},"Ņ":{"ha":1389,"x_min":0,"x_max":1234,"o":"m 309 -309 l 309 -154 l 463 -154 l 463 0 l 771 0 l 771 -154 l 617 -154 l 617 -309 l 309 -309 m 0 0 l 0 1080 l 309 1080 l 309 926 l 463 926 l 463 771 l 617 771 l 617 617 l 771 617 l 771 463 l 926 463 l 926 1080 l 1234 1080 l 1234 0 l 926 0 l 926 154 l 771 154 l 771 309 l 617 309 l 617 463 l 463 463 l 463 617 l 309 617 l 309 0 l 0 0 z "},"ņ":{"ha":1080,"x_min":0,"x_max":926,"o":"m 154 -309 l 154 -154 l 309 -154 l 309 0 l 617 0 l 617 -154 l 463 -154 l 463 -309 l 154 -309 m 0 0 l 0 771 l 154 771 l 154 617 l 309 617 l 309 0 l 0 0 m 617 0 l 617 617 l 309 617 l 309 771 l 771 771 l 771 617 l 926 617 l 926 0 l 617 0 z "},"Ň":{"ha":1389,"x_min":0,"x_max":1234,"o":"m 0 0 l 0 1080 l 309 1080 l 309 926 l 463 926 l 463 771 l 617 771 l 617 617 l 771 617 l 771 463 l 926 463 l 926 1080 l 1234 1080 l 1234 0 l 926 0 l 926 154 l 771 154 l 771 309 l 617 309 l 617 463 l 463 463 l 463 617 l 309 617 l 309 0 l 0 0 m 463 1080 l 463 1234 l 309 1234 l 309 1389 l 617 1389 l 617 1234 l 771 1234 l 771 1080 l 463 1080 m 771 1234 l 771 1389 l 926 1389 l 926 1234 l 771 1234 z "},"ň":{"ha":1080,"x_min":0,"x_max":926,"o":"m 0 0 l 0 771 l 154 771 l 154 617 l 309 617 l 309 0 l 0 0 m 617 0 l 617 617 l 309 617 l 309 771 l 771 771 l 771 617 l 926 617 l 926 0 l 617 0 m 309 926 l 309 1080 l 154 1080 l 154 1234 l 463 1234 l 463 1080 l 617 1080 l 617 926 l 309 926 m 617 1080 l 617 1234 l 771 1234 l 771 1080 l 617 1080 z "},"ŉ":{"ha":1543,"x_min":0,"x_max":1389,"o":"m 463 0 l 463 771 l 617 771 l 617 617 l 771 617 l 771 0 l 463 0 m 1080 0 l 1080 617 l 771 617 l 771 771 l 1234 771 l 1234 617 l 1389 617 l 1389 0 l 1080 0 m 0 617 l 0 1080 l 309 1080 l 309 617 l 0 617 z "},"Ŋ":{"ha":1389,"x_min":0,"x_max":1234,"o":"m 617 -309 l 617 -154 l 926 -154 l 926 154 l 771 154 l 771 309 l 617 309 l 617 463 l 463 463 l 463 617 l 309 617 l 309 0 l 0 0 l 0 1080 l 309 1080 l 309 926 l 463 926 l 463 771 l 617 771 l 617 617 l 771 617 l 771 463 l 926 463 l 926 1080 l 1234 1080 l 1234 -154 l 1080 -154 l 1080 -309 l 617 -309 z "},"ŋ":{"ha":1080,"x_min":0,"x_max":926,"o":"m 0 0 l 0 771 l 154 771 l 154 617 l 309 617 l 309 0 l 0 0 m 309 -309 l 309 -154 l 617 -154 l 617 617 l 309 617 l 309 771 l 771 771 l 771 617 l 926 617 l 926 -154 l 771 -154 l 771 -309 l 309 -309 z "},"Ō":{"ha":1389,"x_min":0,"x_max":1234,"o":"m 926 154 l 926 926 l 309 926 l 309 154 l 926 154 m 154 0 l 154 154 l 0 154 l 0 926 l 154 926 l 154 1080 l 1080 1080 l 1080 926 l 1234 926 l 1234 154 l 1080 154 l 1080 0 l 154 0 m 154 1234 l 154 1389 l 1080 1389 l 1080 1234 l 154 1234 z "},"ō":{"ha":1080,"x_min":0,"x_max":926,"o":"m 617 154 l 617 617 l 309 617 l 309 154 l 617 154 m 154 0 l 154 154 l 0 154 l 0 617 l 154 617 l 154 771 l 771 771 l 771 617 l 926 617 l 926 154 l 771 154 l 771 0 l 154 0 m 0 926 l 0 1080 l 926 1080 l 926 926 l 0 926 z "},"Ŏ":{"ha":1389,"x_min":0,"x_max":1234,"o":"m 926 154 l 926 926 l 309 926 l 309 154 l 926 154 m 154 0 l 154 154 l 0 154 l 0 926 l 154 926 l 154 1080 l 1080 1080 l 1080 926 l 1234 926 l 1234 154 l 1080 154 l 1080 0 l 154 0 m 463 1234 l 463 1389 l 771 1389 l 771 1234 l 463 1234 m 309 1389 l 309 1543 l 463 1543 l 463 1389 l 309 1389 m 771 1389 l 771 1543 l 926 1543 l 926 1389 l 771 1389 z "},"ŏ":{"ha":1080,"x_min":0,"x_max":926,"o":"m 617 154 l 617 617 l 309 617 l 309 154 l 617 154 m 154 0 l 154 154 l 0 154 l 0 617 l 154 617 l 154 771 l 771 771 l 771 617 l 926 617 l 926 154 l 771 154 l 771 0 l 154 0 m 309 926 l 309 1080 l 617 1080 l 617 926 l 309 926 m 154 1080 l 154 1234 l 309 1234 l 309 1080 l 154 1080 m 617 1080 l 617 1234 l 771 1234 l 771 1080 l 617 1080 z "},"Ő":{"ha":1389,"x_min":0,"x_max":1234,"o":"m 926 154 l 926 926 l 309 926 l 309 154 l 926 154 m 154 0 l 154 154 l 0 154 l 0 926 l 154 926 l 154 1080 l 1080 1080 l 1080 926 l 1234 926 l 1234 154 l 1080 154 l 1080 0 l 154 0 m 154 1234 l 154 1389 l 309 1389 l 309 1543 l 617 1543 l 617 1389 l 463 1389 l 463 1234 l 154 1234 m 771 1234 l 771 1389 l 926 1389 l 926 1543 l 1234 1543 l 1234 1389 l 1080 1389 l 1080 1234 l 771 1234 z "},"ő":{"ha":1234,"x_min":0,"x_max":1080,"o":"m 617 154 l 617 617 l 309 617 l 309 154 l 617 154 m 154 0 l 154 154 l 0 154 l 0 617 l 154 617 l 154 771 l 771 771 l 771 617 l 926 617 l 926 154 l 771 154 l 771 0 l 154 0 m 0 926 l 0 1080 l 154 1080 l 154 1234 l 463 1234 l 463 1080 l 309 1080 l 309 926 l 0 926 m 617 926 l 617 1080 l 771 1080 l 771 1234 l 1080 1234 l 1080 1080 l 926 1080 l 926 926 l 617 926 z "},"Œ":{"ha":1543,"x_min":0,"x_max":1389,"o":"m 617 154 l 617 926 l 309 926 l 309 154 l 617 154 m 154 0 l 154 154 l 0 154 l 0 926 l 154 926 l 154 1080 l 1389 1080 l 1389 926 l 926 926 l 926 617 l 1234 617 l 1234 463 l 926 463 l 926 154 l 1389 154 l 1389 0 l 154 0 z "},"œ":{"ha":1543,"x_min":0,"x_max":1389,"o":"m 617 154 l 617 617 l 309 617 l 309 154 l 617 154 m 1080 463 l 1080 617 l 926 617 l 926 463 l 1080 463 m 154 0 l 154 154 l 0 154 l 0 617 l 154 617 l 154 771 l 1234 771 l 1234 617 l 1389 617 l 1389 309 l 926 309 l 926 154 l 1234 154 l 1234 0 l 154 0 z "},"Ŕ":{"ha":1389,"x_min":0,"x_max":1234,"o":"m 926 463 l 926 926 l 309 926 l 309 463 l 926 463 m 0 0 l 0 1080 l 1080 1080 l 1080 926 l 1234 926 l 1234 463 l 1080 463 l 1080 154 l 1234 154 l 1234 0 l 926 0 l 926 154 l 771 154 l 771 309 l 309 309 l 309 0 l 0 0 m 463 1234 l 463 1389 l 617 1389 l 617 1543 l 926 1543 l 926 1389 l 771 1389 l 771 1234 l 463 1234 z "},"ŕ":{"ha":1080,"x_min":0,"x_max":926,"o":"m 0 0 l 0 771 l 154 771 l 154 617 l 309 617 l 309 0 l 0 0 m 617 463 l 617 617 l 309 617 l 309 771 l 771 771 l 771 617 l 926 617 l 926 463 l 617 463 m 309 926 l 309 1080 l 463 1080 l 463 1234 l 771 1234 l 771 1080 l 617 1080 l 617 926 l 309 926 z "},"Ŗ":{"ha":1389,"x_min":0,"x_max":1234,"o":"m 309 -309 l 309 -154 l 463 -154 l 463 0 l 771 0 l 771 -154 l 617 -154 l 617 -309 l 309 -309 m 926 463 l 926 926 l 309 926 l 309 463 l 926 463 m 0 0 l 0 1080 l 1080 1080 l 1080 926 l 1234 926 l 1234 463 l 1080 463 l 1080 154 l 1234 154 l 1234 0 l 926 0 l 926 154 l 771 154 l 771 309 l 309 309 l 309 0 l 0 0 z "},"ŗ":{"ha":1234,"x_min":0,"x_max":1080,"o":"m 0 -309 l 0 -154 l 154 -154 l 154 771 l 309 771 l 309 617 l 463 617 l 463 -154 l 309 -154 l 309 -309 l 0 -309 m 771 463 l 771 617 l 463 617 l 463 771 l 926 771 l 926 617 l 1080 617 l 1080 463 l 771 463 z "},"Ř":{"ha":1389,"x_min":0,"x_max":1234,"o":"m 926 463 l 926 926 l 309 926 l 309 463 l 926 463 m 0 0 l 0 1080 l 1080 1080 l 1080 926 l 1234 926 l 1234 463 l 1080 463 l 1080 154 l 1234 154 l 1234 0 l 926 0 l 926 154 l 771 154 l 771 309 l 309 309 l 309 0 l 0 0 m 463 1234 l 463 1389 l 309 1389 l 309 1543 l 617 1543 l 617 1389 l 771 1389 l 771 1234 l 463 1234 m 771 1389 l 771 1543 l 926 1543 l 926 1389 l 771 1389 z "},"ř":{"ha":1080,"x_min":0,"x_max":926,"o":"m 0 0 l 0 771 l 154 771 l 154 617 l 309 617 l 309 0 l 0 0 m 617 463 l 617 617 l 309 617 l 309 771 l 771 771 l 771 617 l 926 617 l 926 463 l 617 463 m 309 926 l 309 1080 l 154 1080 l 154 1234 l 463 1234 l 463 1080 l 617 1080 l 617 926 l 309 926 m 617 1080 l 617 1234 l 771 1234 l 771 1080 l 617 1080 z "},"Ś":{"ha":1389,"x_min":0,"x_max":1234,"o":"m 154 0 l 154 154 l 0 154 l 0 309 l 309 309 l 309 154 l 926 154 l 926 463 l 154 463 l 154 617 l 0 617 l 0 926 l 154 926 l 154 1080 l 1080 1080 l 1080 926 l 1234 926 l 1234 771 l 926 771 l 926 926 l 309 926 l 309 617 l 1080 617 l 1080 463 l 1234 463 l 1234 154 l 1080 154 l 1080 0 l 154 0 m 463 1234 l 463 1389 l 617 1389 l 617 1543 l 926 1543 l 926 1389 l 771 1389 l 771 1234 l 463 1234 z "},"ś":{"ha":1080,"x_min":0,"x_max":926,"o":"m 0 0 l 0 154 l 463 154 l 463 309 l 154 309 l 154 463 l 0 463 l 0 617 l 154 617 l 154 771 l 926 771 l 926 617 l 463 617 l 463 463 l 771 463 l 771 309 l 926 309 l 926 154 l 771 154 l 771 0 l 0 0 m 309 926 l 309 1080 l 463 1080 l 463 1234 l 771 1234 l 771 1080 l 617 1080 l 617 926 l 309 926 z "},"Ŝ":{"ha":1389,"x_min":0,"x_max":1234,"o":"m 154 0 l 154 154 l 0 154 l 0 309 l 309 309 l 309 154 l 926 154 l 926 463 l 154 463 l 154 617 l 0 617 l 0 926 l 154 926 l 154 1080 l 1080 1080 l 1080 926 l 1234 926 l 1234 771 l 926 771 l 926 926 l 309 926 l 309 617 l 1080 617 l 1080 463 l 1234 463 l 1234 154 l 1080 154 l 1080 0 l 154 0 m 771 1234 l 771 1389 l 926 1389 l 926 1234 l 771 1234 m 309 1234 l 309 1389 l 463 1389 l 463 1543 l 771 1543 l 771 1389 l 617 1389 l 617 1234 l 309 1234 z "},"ŝ":{"ha":1080,"x_min":0,"x_max":926,"o":"m 0 0 l 0 154 l 463 154 l 463 309 l 154 309 l 154 463 l 0 463 l 0 617 l 154 617 l 154 771 l 926 771 l 926 617 l 463 617 l 463 463 l 771 463 l 771 309 l 926 309 l 926 154 l 771 154 l 771 0 l 0 0 m 617 926 l 617 1080 l 771 1080 l 771 926 l 617 926 m 154 926 l 154 1080 l 309 1080 l 309 1234 l 617 1234 l 617 1080 l 463 1080 l 463 926 l 154 926 z "},"Ş":{"ha":1389,"x_min":0,"x_max":1234,"o":"m 309 -309 l 309 -154 l 463 -154 l 463 0 l 154 0 l 154 154 l 0 154 l 0 309 l 309 309 l 309 154 l 926 154 l 926 463 l 154 463 l 154 617 l 0 617 l 0 926 l 154 926 l 154 1080 l 1080 1080 l 1080 926 l 1234 926 l 1234 771 l 926 771 l 926 926 l 309 926 l 309 617 l 1080 617 l 1080 463 l 1234 463 l 1234 154 l 1080 154 l 1080 0 l 771 0 l 771 -154 l 617 -154 l 617 -309 l 309 -309 z "},"ş":{"ha":1080,"x_min":0,"x_max":926,"o":"m 154 -309 l 154 -154 l 309 -154 l 309 0 l 0 0 l 0 154 l 463 154 l 463 309 l 154 309 l 154 463 l 0 463 l 0 617 l 154 617 l 154 771 l 926 771 l 926 617 l 463 617 l 463 463 l 771 463 l 771 309 l 926 309 l 926 154 l 771 154 l 771 0 l 617 0 l 617 -154 l 463 -154 l 463 -309 l 154 -309 z "},"Š":{"ha":1389,"x_min":0,"x_max":1234,"o":"m 154 0 l 154 154 l 0 154 l 0 309 l 309 309 l 309 154 l 926 154 l 926 463 l 154 463 l 154 617 l 0 617 l 0 926 l 154 926 l 154 1080 l 1080 1080 l 1080 926 l 1234 926 l 1234 771 l 926 771 l 926 926 l 309 926 l 309 617 l 1080 617 l 1080 463 l 1234 463 l 1234 154 l 1080 154 l 1080 0 l 154 0 m 463 1234 l 463 1389 l 309 1389 l 309 1543 l 617 1543 l 617 1389 l 771 1389 l 771 1234 l 463 1234 m 771 1389 l 771 1543 l 926 1543 l 926 1389 l 771 1389 z "},"š":{"ha":1080,"x_min":0,"x_max":926,"o":"m 0 0 l 0 154 l 463 154 l 463 309 l 154 309 l 154 463 l 0 463 l 0 617 l 154 617 l 154 771 l 926 771 l 926 617 l 463 617 l 463 463 l 771 463 l 771 309 l 926 309 l 926 154 l 771 154 l 771 0 l 0 0 m 309 926 l 309 1080 l 154 1080 l 154 1234 l 463 1234 l 463 1080 l 617 1080 l 617 926 l 309 926 m 617 1080 l 617 1234 l 771 1234 l 771 1080 l 617 1080 z "},"Ţ":{"ha":1389,"x_min":0,"x_max":1234,"o":"m 309 -309 l 309 -154 l 463 -154 l 463 926 l 0 926 l 0 1080 l 1234 1080 l 1234 926 l 771 926 l 771 -154 l 617 -154 l 617 -309 l 309 -309 z "},"ţ":{"ha":926,"x_min":0,"x_max":771,"o":"m 154 -309 l 154 -154 l 309 -154 l 309 154 l 154 154 l 154 617 l 0 617 l 0 771 l 154 771 l 154 926 l 463 926 l 463 771 l 771 771 l 771 617 l 463 617 l 463 154 l 771 154 l 771 0 l 617 0 l 617 -154 l 463 -154 l 463 -309 l 154 -309 z "},"Ť":{"ha":1389,"x_min":0,"x_max":1234,"o":"m 463 0 l 463 926 l 0 926 l 0 1080 l 1234 1080 l 1234 926 l 771 926 l 771 0 l 463 0 m 463 1234 l 463 1389 l 309 1389 l 309 1543 l 617 1543 l 617 1389 l 771 1389 l 771 1234 l 463 1234 m 771 1389 l 771 1543 l 926 1543 l 926 1389 l 771 1389 z "},"ť":{"ha":1389,"x_min":0,"x_max":1234,"o":"m 309 0 l 309 154 l 154 154 l 154 617 l 0 617 l 0 771 l 154 771 l 154 926 l 463 926 l 463 771 l 771 771 l 771 617 l 463 617 l 463 154 l 771 154 l 771 0 l 309 0 m 926 463 l 926 926 l 1234 926 l 1234 617 l 1080 617 l 1080 463 l 926 463 z "},"Ŧ":{"ha":1389,"x_min":0,"x_max":1234,"o":"m 463 0 l 463 463 l 154 463 l 154 617 l 463 617 l 463 926 l 0 926 l 0 1080 l 1234 1080 l 1234 926 l 771 926 l 771 617 l 1080 617 l 1080 463 l 771 463 l 771 0 l 463 0 z "},"ŧ":{"ha":926,"x_min":0,"x_max":771,"o":"m 309 0 l 309 154 l 154 154 l 154 309 l 0 309 l 0 463 l 154 463 l 154 617 l 0 617 l 0 771 l 154 771 l 154 926 l 463 926 l 463 771 l 771 771 l 771 617 l 463 617 l 463 463 l 771 463 l 771 309 l 463 309 l 463 154 l 771 154 l 771 0 l 309 0 z "},"Ũ":{"ha":1389,"x_min":0,"x_max":1234,"o":"m 154 0 l 154 154 l 0 154 l 0 1080 l 309 1080 l 309 154 l 926 154 l 926 1080 l 1234 1080 l 1234 154 l 1080 154 l 1080 0 l 154 0 m 154 1234 l 154 1389 l 309 1389 l 309 1543 l 617 1543 l 617 1389 l 463 1389 l 463 1234 l 154 1234 m 617 1234 l 617 1389 l 771 1389 l 771 1543 l 1080 1543 l 1080 1389 l 926 1389 l 926 1234 l 617 1234 z "},"ũ":{"ha":1080,"x_min":0,"x_max":926,"o":"m 154 0 l 154 154 l 0 154 l 0 771 l 309 771 l 309 154 l 617 154 l 617 0 l 154 0 m 771 0 l 771 154 l 617 154 l 617 771 l 926 771 l 926 0 l 771 0 m 0 926 l 0 1080 l 154 1080 l 154 1234 l 463 1234 l 463 1080 l 309 1080 l 309 926 l 0 926 m 463 926 l 463 1080 l 617 1080 l 617 1234 l 926 1234 l 926 1080 l 771 1080 l 771 926 l 463 926 z "},"Ū":{"ha":1389,"x_min":0,"x_max":1234,"o":"m 154 0 l 154 154 l 0 154 l 0 1080 l 309 1080 l 309 154 l 926 154 l 926 1080 l 1234 1080 l 1234 154 l 1080 154 l 1080 0 l 154 0 m 154 1234 l 154 1389 l 1080 1389 l 1080 1234 l 154 1234 z "},"ū":{"ha":1080,"x_min":0,"x_max":926,"o":"m 154 0 l 154 154 l 0 154 l 0 771 l 309 771 l 309 154 l 617 154 l 617 0 l 154 0 m 771 0 l 771 154 l 617 154 l 617 771 l 926 771 l 926 0 l 771 0 m 0 926 l 0 1080 l 926 1080 l 926 926 l 0 926 z "},"Ŭ":{"ha":1389,"x_min":0,"x_max":1234,"o":"m 154 0 l 154 154 l 0 154 l 0 1080 l 309 1080 l 309 154 l 926 154 l 926 1080 l 1234 1080 l 1234 154 l 1080 154 l 1080 0 l 154 0 m 463 1234 l 463 1389 l 771 1389 l 771 1234 l 463 1234 m 309 1389 l 309 1543 l 463 1543 l 463 1389 l 309 1389 m 771 1389 l 771 1543 l 926 1543 l 926 1389 l 771 1389 z "},"ŭ":{"ha":1080,"x_min":0,"x_max":926,"o":"m 154 0 l 154 154 l 0 154 l 0 771 l 309 771 l 309 154 l 617 154 l 617 0 l 154 0 m 771 0 l 771 154 l 617 154 l 617 771 l 926 771 l 926 0 l 771 0 m 309 926 l 309 1080 l 617 1080 l 617 926 l 309 926 m 154 1080 l 154 1234 l 309 1234 l 309 1080 l 154 1080 m 617 1080 l 617 1234 l 771 1234 l 771 1080 l 617 1080 z "},"Ů":{"ha":1389,"x_min":0,"x_max":1234,"o":"m 154 0 l 154 154 l 0 154 l 0 1080 l 309 1080 l 309 154 l 926 154 l 926 1080 l 1234 1080 l 1234 154 l 1080 154 l 1080 0 l 154 0 m 771 1080 l 771 1389 l 926 1389 l 926 1080 l 771 1080 m 463 926 l 463 1080 l 309 1080 l 309 1389 l 463 1389 l 463 1543 l 771 1543 l 771 1389 l 617 1389 l 617 1080 l 771 1080 l 771 926 l 463 926 z "},"ů":{"ha":1080,"x_min":0,"x_max":926,"o":"m 154 0 l 154 154 l 0 154 l 0 771 l 154 771 l 154 1080 l 309 1080 l 309 1234 l 617 1234 l 617 1080 l 463 1080 l 463 771 l 617 771 l 617 1080 l 771 1080 l 771 771 l 926 771 l 926 0 l 771 0 l 771 154 l 617 154 l 617 617 l 309 617 l 309 154 l 617 154 l 617 0 l 154 0 z "},"Ű":{"ha":1389,"x_min":0,"x_max":1234,"o":"m 154 0 l 154 154 l 0 154 l 0 1080 l 309 1080 l 309 154 l 926 154 l 926 1080 l 1234 1080 l 1234 154 l 1080 154 l 1080 0 l 154 0 m 154 1234 l 154 1389 l 309 1389 l 309 1543 l 617 1543 l 617 1389 l 463 1389 l 463 1234 l 154 1234 m 771 1234 l 771 1389 l 926 1389 l 926 1543 l 1234 1543 l 1234 1389 l 1080 1389 l 1080 1234 l 771 1234 z "},"ű":{"ha":1234,"x_min":0,"x_max":1080,"o":"m 154 0 l 154 154 l 0 154 l 0 771 l 309 771 l 309 154 l 617 154 l 617 0 l 154 0 m 771 0 l 771 154 l 617 154 l 617 771 l 926 771 l 926 0 l 771 0 m 0 926 l 0 1080 l 154 1080 l 154 1234 l 463 1234 l 463 1080 l 309 1080 l 309 926 l 0 926 m 617 926 l 617 1080 l 771 1080 l 771 1234 l 1080 1234 l 1080 1080 l 926 1080 l 926 926 l 617 926 z "},"Ų":{"ha":1389,"x_min":0,"x_max":1234,"o":"m 926 -309 l 926 -154 l 771 -154 l 771 0 l 154 0 l 154 154 l 0 154 l 0 1080 l 309 1080 l 309 154 l 926 154 l 926 1080 l 1234 1080 l 1234 154 l 1080 154 l 1080 -154 l 1234 -154 l 1234 -309 l 926 -309 z "},"ų":{"ha":1080,"x_min":0,"x_max":926,"o":"m 617 -309 l 617 -154 l 463 -154 l 463 0 l 154 0 l 154 154 l 0 154 l 0 771 l 309 771 l 309 154 l 617 154 l 617 0 l 771 0 l 771 -154 l 926 -154 l 926 -309 l 617 -309 m 771 0 l 771 154 l 617 154 l 617 771 l 926 771 l 926 0 l 771 0 z "},"Ŵ":{"ha":1543,"x_min":0,"x_max":1389,"o":"m 0 0 l 0 1080 l 309 1080 l 309 463 l 463 463 l 463 617 l 617 617 l 617 771 l 771 771 l 771 617 l 926 617 l 926 463 l 1080 463 l 1080 1080 l 1389 1080 l 1389 0 l 1080 0 l 1080 154 l 926 154 l 926 309 l 771 309 l 771 463 l 617 463 l 617 309 l 463 309 l 463 154 l 309 154 l 309 0 l 0 0 m 771 1234 l 771 1389 l 926 1389 l 926 1234 l 771 1234 m 309 1234 l 309 1389 l 463 1389 l 463 1543 l 771 1543 l 771 1389 l 617 1389 l 617 1234 l 309 1234 z "},"ŵ":{"ha":1389,"x_min":0,"x_max":1234,"o":"m 154 0 l 154 154 l 0 154 l 0 771 l 309 771 l 309 154 l 463 154 l 463 771 l 771 771 l 771 154 l 617 154 l 617 0 l 154 0 m 771 0 l 771 154 l 926 154 l 926 771 l 1234 771 l 1234 154 l 1080 154 l 1080 0 l 771 0 m 771 926 l 771 1080 l 926 1080 l 926 926 l 771 926 m 309 926 l 309 1080 l 463 1080 l 463 1234 l 771 1234 l 771 1080 l 617 1080 l 617 926 l 309 926 z "},"Ŷ":{"ha":1389,"x_min":0,"x_max":1234,"o":"m 463 0 l 463 463 l 309 463 l 309 617 l 154 617 l 154 771 l 0 771 l 0 1080 l 309 1080 l 309 771 l 463 771 l 463 617 l 771 617 l 771 771 l 926 771 l 926 1080 l 1234 1080 l 1234 771 l 1080 771 l 1080 617 l 926 617 l 926 463 l 771 463 l 771 0 l 463 0 m 771 1234 l 771 1389 l 926 1389 l 926 1234 l 771 1234 m 309 1234 l 309 1389 l 463 1389 l 463 1543 l 771 1543 l 771 1389 l 617 1389 l 617 1234 l 309 1234 z "},"ŷ":{"ha":1080,"x_min":0,"x_max":926,"o":"m 154 -309 l 154 -154 l 617 -154 l 617 0 l 154 0 l 154 154 l 0 154 l 0 771 l 309 771 l 309 154 l 617 154 l 617 771 l 926 771 l 926 -154 l 771 -154 l 771 -309 l 154 -309 m 617 926 l 617 1080 l 771 1080 l 771 926 l 617 926 m 154 926 l 154 1080 l 309 1080 l 309 1234 l 617 1234 l 617 1080 l 463 1080 l 463 926 l 154 926 z "},"Ÿ":{"ha":1389,"x_min":0,"x_max":1234,"o":"m 463 0 l 463 463 l 309 463 l 309 617 l 154 617 l 154 771 l 0 771 l 0 1080 l 309 1080 l 309 771 l 463 771 l 463 617 l 771 617 l 771 771 l 926 771 l 926 1080 l 1234 1080 l 1234 771 l 1080 771 l 1080 617 l 926 617 l 926 463 l 771 463 l 771 0 l 463 0 m 154 1234 l 154 1389 l 463 1389 l 463 1234 l 154 1234 m 771 1234 l 771 1389 l 1080 1389 l 1080 1234 l 771 1234 z "},"Ź":{"ha":1389,"x_min":0,"x_max":1234,"o":"m 0 0 l 0 154 l 154 154 l 154 309 l 309 309 l 309 463 l 463 463 l 463 617 l 617 617 l 617 771 l 771 771 l 771 926 l 0 926 l 0 1080 l 1234 1080 l 1234 926 l 1080 926 l 1080 771 l 926 771 l 926 617 l 771 617 l 771 463 l 617 463 l 617 309 l 463 309 l 463 154 l 1234 154 l 1234 0 l 0 0 m 463 1234 l 463 1389 l 617 1389 l 617 1543 l 926 1543 l 926 1389 l 771 1389 l 771 1234 l 463 1234 z "},"ź":{"ha":1080,"x_min":0,"x_max":926,"o":"m 0 0 l 0 154 l 154 154 l 154 309 l 309 309 l 309 463 l 463 463 l 463 617 l 0 617 l 0 771 l 926 771 l 926 617 l 771 617 l 771 463 l 617 463 l 617 309 l 463 309 l 463 154 l 926 154 l 926 0 l 0 0 m 309 926 l 309 1080 l 463 1080 l 463 1234 l 771 1234 l 771 1080 l 617 1080 l 617 926 l 309 926 z "},"Ż":{"ha":1389,"x_min":0,"x_max":1234,"o":"m 0 0 l 0 154 l 154 154 l 154 309 l 309 309 l 309 463 l 463 463 l 463 617 l 617 617 l 617 771 l 771 771 l 771 926 l 0 926 l 0 1080 l 1234 1080 l 1234 926 l 1080 926 l 1080 771 l 926 771 l 926 617 l 771 617 l 771 463 l 617 463 l 617 309 l 463 309 l 463 154 l 1234 154 l 1234 0 l 0 0 m 463 1234 l 463 1389 l 771 1389 l 771 1234 l 463 1234 z "},"ż":{"ha":1080,"x_min":0,"x_max":926,"o":"m 0 0 l 0 154 l 154 154 l 154 309 l 309 309 l 309 463 l 463 463 l 463 617 l 0 617 l 0 771 l 926 771 l 926 617 l 771 617 l 771 463 l 617 463 l 617 309 l 463 309 l 463 154 l 926 154 l 926 0 l 0 0 m 309 926 l 309 1080 l 617 1080 l 617 926 l 309 926 z "},"Ž":{"ha":1389,"x_min":0,"x_max":1234,"o":"m 0 0 l 0 154 l 154 154 l 154 309 l 309 309 l 309 463 l 463 463 l 463 617 l 617 617 l 617 771 l 771 771 l 771 926 l 0 926 l 0 1080 l 1234 1080 l 1234 926 l 1080 926 l 1080 771 l 926 771 l 926 617 l 771 617 l 771 463 l 617 463 l 617 309 l 463 309 l 463 154 l 1234 154 l 1234 0 l 0 0 m 463 1234 l 463 1389 l 309 1389 l 309 1543 l 617 1543 l 617 1389 l 771 1389 l 771 1234 l 463 1234 m 771 1389 l 771 1543 l 926 1543 l 926 1389 l 771 1389 z "},"ž":{"ha":1080,"x_min":0,"x_max":926,"o":"m 0 0 l 0 154 l 154 154 l 154 309 l 309 309 l 309 463 l 463 463 l 463 617 l 0 617 l 0 771 l 926 771 l 926 617 l 771 617 l 771 463 l 617 463 l 617 309 l 463 309 l 463 154 l 926 154 l 926 0 l 0 0 m 309 926 l 309 1080 l 154 1080 l 154 1234 l 463 1234 l 463 1080 l 617 1080 l 617 926 l 309 926 m 617 1080 l 617 1234 l 771 1234 l 771 1080 l 617 1080 z "},"ſ":{"ha":1234,"x_min":0,"x_max":1080,"o":"m 154 0 l 154 463 l 0 463 l 0 617 l 154 617 l 154 926 l 309 926 l 309 1080 l 926 1080 l 926 926 l 1080 926 l 1080 771 l 771 771 l 771 926 l 463 926 l 463 0 l 154 0 z "},"ˆ":{"ha":771,"x_min":0,"x_max":617,"o":"m 463 771 l 463 926 l 617 926 l 617 771 l 463 771 m 0 771 l 0 926 l 154 926 l 154 1080 l 463 1080 l 463 926 l 309 926 l 309 771 l 0 771 z "},"˚":{"ha":771,"x_min":0,"x_max":617,"o":"m 463 617 l 463 926 l 617 926 l 617 617 l 463 617 m 154 463 l 154 617 l 0 617 l 0 926 l 154 926 l 154 1080 l 463 1080 l 463 926 l 309 926 l 309 617 l 463 617 l 463 463 l 154 463 z "},"˜":{"ha":1080,"x_min":0,"x_max":926,"o":"m 0 771 l 0 926 l 154 926 l 154 1080 l 463 1080 l 463 926 l 309 926 l 309 771 l 0 771 m 463 771 l 463 926 l 617 926 l 617 1080 l 926 1080 l 926 926 l 771 926 l 771 771 l 463 771 z "},"ẞ":{"ha":1389,"x_min":0,"x_max":1234,"o":"m 0 0 l 0 926 l 154 926 l 154 1080 l 1080 1080 l 1080 926 l 1234 926 l 1234 617 l 1080 617 l 1080 463 l 1234 463 l 1234 154 l 1080 154 l 1080 0 l 463 0 l 463 154 l 926 154 l 926 463 l 463 463 l 463 617 l 926 617 l 926 926 l 309 926 l 309 0 l 0 0 z "},"–":{"ha":1389,"x_min":0,"x_max":1234,"o":"m 0 463 l 0 617 l 1234 617 l 1234 463 l 0 463 z "},"—":{"ha":1389,"x_min":0,"x_max":1234,"o":"m 0 463 l 0 617 l 1234 617 l 1234 463 l 0 463 z "},"‘":{"ha":463,"x_min":0,"x_max":309,"o":"m 0 617 l 0 926 l 154 926 l 154 1080 l 309 1080 l 309 617 l 0 617 z "},"’":{"ha":463,"x_min":0,"x_max":309,"o":"m 0 617 l 0 1080 l 309 1080 l 309 771 l 154 771 l 154 617 l 0 617 z "},"‚":{"ha":463,"x_min":0,"x_max":309,"o":"m 0 -309 l 0 154 l 309 154 l 309 -154 l 154 -154 l 154 -309 l 0 -309 z "},"‛":{"ha":463,"x_min":0,"x_max":309,"o":"m 154 617 l 154 771 l 0 771 l 0 1080 l 309 1080 l 309 617 l 154 617 z "},"“":{"ha":926,"x_min":0,"x_max":771,"o":"m 0 617 l 0 926 l 154 926 l 154 1080 l 309 1080 l 309 617 l 0 617 m 463 617 l 463 926 l 617 926 l 617 1080 l 771 1080 l 771 617 l 463 617 z "},"”":{"ha":926,"x_min":0,"x_max":771,"o":"m 0 617 l 0 1080 l 309 1080 l 309 771 l 154 771 l 154 617 l 0 617 m 463 617 l 463 1080 l 771 1080 l 771 771 l 617 771 l 617 617 l 463 617 z "},"„":{"ha":926,"x_min":0,"x_max":771,"o":"m 0 -309 l 0 154 l 309 154 l 309 -154 l 154 -154 l 154 -309 l 0 -309 m 463 -309 l 463 154 l 771 154 l 771 -154 l 617 -154 l 617 -309 l 463 -309 z "},"†":{"ha":1389,"x_min":0,"x_max":1234,"o":"m 463 0 l 463 617 l 0 617 l 0 771 l 463 771 l 463 1080 l 771 1080 l 771 771 l 1234 771 l 1234 617 l 771 617 l 771 0 l 463 0 z "},"•":{"ha":771,"x_min":0,"x_max":617,"o":"m 154 154 l 154 309 l 0 309 l 0 617 l 154 617 l 154 771 l 463 771 l 463 617 l 617 617 l 617 309 l 463 309 l 463 154 l 154 154 z "},"…":{"ha":1389,"x_min":0,"x_max":1234,"o":"m 0 0 l 0 154 l 309 154 l 309 0 l 0 0 m 463 0 l 463 154 l 771 154 l 771 0 l 463 0 m 926 0 l 926 154 l 1234 154 l 1234 0 l 926 0 z "},"‹":{"ha":771,"x_min":0,"x_max":617,"o":"m 309 0 l 309 154 l 154 154 l 154 309 l 0 309 l 0 463 l 154 463 l 154 617 l 309 617 l 309 771 l 617 771 l 617 617 l 463 617 l 463 463 l 309 463 l 309 309 l 463 309 l 463 154 l 617 154 l 617 0 l 309 0 z "},"›":{"ha":771,"x_min":0,"x_max":617,"o":"m 0 0 l 0 154 l 154 154 l 154 309 l 309 309 l 309 463 l 154 463 l 154 617 l 0 617 l 0 771 l 309 771 l 309 617 l 463 617 l 463 463 l 617 463 l 617 309 l 463 309 l 463 154 l 309 154 l 309 0 l 0 0 z "},"⁄":{"ha":1389,"x_min":0,"x_max":1234,"o":"m 0 0 l 0 154 l 154 154 l 154 309 l 309 309 l 309 463 l 463 463 l 463 617 l 617 617 l 617 771 l 771 771 l 771 926 l 926 926 l 926 1080 l 1234 1080 l 1234 926 l 1080 926 l 1080 771 l 926 771 l 926 617 l 771 617 l 771 463 l 617 463 l 617 309 l 463 309 l 463 154 l 309 154 l 309 0 l 0 0 z "},"⁴":{"ha":926,"x_min":0,"x_max":771,"o":"m 309 617 l 309 771 l 154 771 l 154 617 l 309 617 m 309 309 l 309 463 l 0 463 l 0 926 l 154 926 l 154 1080 l 617 1080 l 617 617 l 771 617 l 771 463 l 617 463 l 617 309 l 309 309 z "},"€":{"ha":1389,"x_min":0,"x_max":1234,"o":"m 309 0 l 309 154 l 154 154 l 154 309 l 0 309 l 0 463 l 154 463 l 154 617 l 0 617 l 0 771 l 154 771 l 154 926 l 309 926 l 309 1080 l 1080 1080 l 1080 926 l 1234 926 l 1234 771 l 926 771 l 926 926 l 463 926 l 463 771 l 771 771 l 771 617 l 463 617 l 463 463 l 771 463 l 771 309 l 463 309 l 463 154 l 926 154 l 926 309 l 1234 309 l 1234 154 l 1080 154 l 1080 0 l 309 0 z "},"™":{"ha":1389,"x_min":0,"x_max":1234,"o":"m 154 463 l 154 926 l 0 926 l 0 1080 l 1234 1080 l 1234 463 l 1080 463 l 1080 617 l 926 617 l 926 771 l 771 771 l 771 463 l 617 463 l 617 926 l 463 926 l 463 463 l 154 463 z "},"−":{"ha":1389,"x_min":0,"x_max":1234,"o":"m 0 463 l 0 617 l 1234 617 l 1234 463 l 0 463 z "},"∕":{"ha":1389,"x_min":0,"x_max":1234,"o":"m 0 0 l 0 154 l 154 154 l 154 309 l 309 309 l 309 463 l 463 463 l 463 617 l 617 617 l 617 771 l 771 771 l 771 926 l 926 926 l 926 1080 l 1234 1080 l 1234 926 l 1080 926 l 1080 771 l 926 771 l 926 617 l 771 617 l 771 463 l 617 463 l 617 309 l 463 309 l 463 154 l 309 154 l 309 0 l 0 0 z "}," ":{"ha":617,"x_min":0,"x_max":0,"o":""}}}
